<svg width="503" height="41" viewBox="0 0 503 41" fill="none" xmlns="http://www.w3.org/2000/svg">
<path d="M148.356 23.1716H142.767L142.737 20.8239H147.811C148.649 20.8239 149.381 20.6825 150.007 20.3998C150.633 20.1171 151.118 19.7132 151.461 19.1881C151.815 18.6529 151.991 18.0168 151.991 17.2796C151.991 16.4718 151.835 15.8155 151.522 15.3106C151.219 14.7956 150.749 14.422 150.113 14.1898C149.487 13.9474 148.69 13.8262 147.72 13.8262H143.419V33.4863H140.495V11.4331H147.72C148.851 11.4331 149.861 11.5492 150.749 11.7815C151.638 12.0036 152.39 12.357 153.006 12.8417C153.632 13.3163 154.107 13.9222 154.43 14.6593C154.753 15.3964 154.915 16.28 154.915 17.3099C154.915 18.2187 154.682 19.0417 154.218 19.7788C153.753 20.5058 153.107 21.1016 152.279 21.5661C151.461 22.0306 150.502 22.3284 149.401 22.4597L148.356 23.1716ZM148.22 33.4863H141.616L143.267 31.1083H148.22C149.149 31.1083 149.937 30.9468 150.583 30.6237C151.239 30.3005 151.739 29.8461 152.082 29.2605C152.426 28.6647 152.597 27.9629 152.597 27.1551C152.597 26.3372 152.451 25.6304 152.158 25.0346C151.865 24.4389 151.406 23.9794 150.78 23.6563C150.154 23.3332 149.346 23.1716 148.356 23.1716H144.191L144.221 20.8239H149.916L150.537 21.6721C151.598 21.763 152.496 22.0659 153.233 22.5809C153.971 23.0858 154.531 23.732 154.915 24.5196C155.309 25.3072 155.505 26.1756 155.505 27.1248C155.505 28.4981 155.202 29.6593 154.597 30.6085C154.001 31.5476 153.158 32.2645 152.067 32.7593C150.977 33.244 149.694 33.4863 148.22 33.4863ZM158.656 25.4739V25.1255C158.656 23.9441 158.828 22.8485 159.171 21.8387C159.514 20.8189 160.009 19.9353 160.655 19.1881C161.301 18.4308 162.084 17.8451 163.003 17.4311C163.922 17.007 164.952 16.7949 166.093 16.7949C167.244 16.7949 168.279 17.007 169.198 17.4311C170.127 17.8451 170.914 18.4308 171.561 19.1881C172.217 19.9353 172.717 20.8189 173.06 21.8387C173.403 22.8485 173.575 23.9441 173.575 25.1255V25.4739C173.575 26.6553 173.403 27.7509 173.06 28.7606C172.717 29.7704 172.217 30.6539 171.561 31.4113C170.914 32.1585 170.132 32.7442 169.213 33.1683C168.304 33.5823 167.274 33.7893 166.123 33.7893C164.972 33.7893 163.937 33.5823 163.018 33.1683C162.099 32.7442 161.312 32.1585 160.655 31.4113C160.009 30.6539 159.514 29.7704 159.171 28.7606C158.828 27.7509 158.656 26.6553 158.656 25.4739ZM161.458 25.1255V25.4739C161.458 26.2918 161.554 27.0642 161.746 27.7913C161.938 28.5082 162.225 29.1443 162.609 29.6997C163.003 30.2551 163.493 30.6943 164.078 31.0175C164.664 31.3305 165.346 31.487 166.123 31.487C166.89 31.487 167.562 31.3305 168.138 31.0175C168.723 30.6943 169.208 30.2551 169.592 29.6997C169.975 29.1443 170.263 28.5082 170.455 27.7913C170.657 27.0642 170.758 26.2918 170.758 25.4739V25.1255C170.758 24.3177 170.657 23.5553 170.455 22.8384C170.263 22.1113 169.97 21.4702 169.576 20.9148C169.193 20.3493 168.708 19.905 168.122 19.5819C167.547 19.2588 166.87 19.0972 166.093 19.0972C165.325 19.0972 164.649 19.2588 164.063 19.5819C163.488 19.905 163.003 20.3493 162.609 20.9148C162.225 21.4702 161.938 22.1113 161.746 22.8384C161.554 23.5553 161.458 24.3177 161.458 25.1255ZM176.347 25.4739V25.1255C176.347 23.9441 176.519 22.8485 176.862 21.8387C177.205 20.8189 177.7 19.9353 178.346 19.1881C178.993 18.4308 179.775 17.8451 180.694 17.4311C181.613 17.007 182.643 16.7949 183.784 16.7949C184.935 16.7949 185.97 17.007 186.889 17.4311C187.818 17.8451 188.605 18.4308 189.252 19.1881C189.908 19.9353 190.408 20.8189 190.751 21.8387C191.095 22.8485 191.266 23.9441 191.266 25.1255V25.4739C191.266 26.6553 191.095 27.7509 190.751 28.7606C190.408 29.7704 189.908 30.6539 189.252 31.4113C188.605 32.1585 187.823 32.7442 186.904 33.1683C185.995 33.5823 184.965 33.7893 183.814 33.7893C182.663 33.7893 181.628 33.5823 180.709 33.1683C179.79 32.7442 179.003 32.1585 178.346 31.4113C177.7 30.6539 177.205 29.7704 176.862 28.7606C176.519 27.7509 176.347 26.6553 176.347 25.4739ZM179.149 25.1255V25.4739C179.149 26.2918 179.245 27.0642 179.437 27.7913C179.629 28.5082 179.916 29.1443 180.3 29.6997C180.694 30.2551 181.184 30.6943 181.769 31.0175C182.355 31.3305 183.037 31.487 183.814 31.487C184.582 31.487 185.253 31.3305 185.829 31.0175C186.414 30.6943 186.899 30.2551 187.283 29.6997C187.666 29.1443 187.954 28.5082 188.146 27.7913C188.348 27.0642 188.449 26.2918 188.449 25.4739V25.1255C188.449 24.3177 188.348 23.5553 188.146 22.8384C187.954 22.1113 187.661 21.4702 187.268 20.9148C186.884 20.3493 186.399 19.905 185.813 19.5819C185.238 19.2588 184.561 19.0972 183.784 19.0972C183.016 19.0972 182.34 19.2588 181.754 19.5819C181.179 19.905 180.694 20.3493 180.3 20.9148C179.916 21.4702 179.629 22.1113 179.437 22.8384C179.245 23.5553 179.149 24.3177 179.149 25.1255ZM197.567 20.3544V33.4863H194.75V17.0979H197.416L197.567 20.3544ZM196.992 24.6711L195.689 24.6257C195.699 23.5048 195.845 22.4698 196.128 21.5206C196.411 20.5614 196.83 19.7283 197.385 19.0215C197.941 18.3146 198.632 17.7694 199.46 17.3857C200.288 16.9919 201.248 16.7949 202.338 16.7949C203.106 16.7949 203.812 16.906 204.459 17.1282C205.105 17.3402 205.665 17.6785 206.14 18.143C206.615 18.6075 206.983 19.2032 207.246 19.9303C207.508 20.6573 207.639 21.5358 207.639 22.5657V33.4863H204.837V22.7021C204.837 21.8438 204.691 21.1571 204.398 20.6421C204.115 20.1272 203.712 19.7536 203.186 19.5213C202.661 19.279 202.045 19.1578 201.339 19.1578C200.511 19.1578 199.819 19.3042 199.263 19.597C198.708 19.8899 198.264 20.2938 197.931 20.8088C197.597 21.3237 197.355 21.9144 197.204 22.5809C197.062 23.2372 196.992 23.934 196.992 24.6711ZM207.609 23.1262L205.731 23.7017C205.741 22.803 205.888 21.9397 206.17 21.1117C206.463 20.2837 206.882 19.5466 207.427 18.9003C207.983 18.2541 208.664 17.7441 209.472 17.3705C210.28 16.9868 211.204 16.7949 212.244 16.7949C213.122 16.7949 213.9 16.9111 214.577 17.1433C215.263 17.3756 215.839 17.734 216.303 18.2187C216.778 18.6933 217.136 19.3042 217.379 20.0514C217.621 20.7987 217.742 21.6872 217.742 22.7172V33.4863H214.925V22.6869C214.925 21.768 214.779 21.0561 214.486 20.5513C214.203 20.0363 213.799 19.6778 213.274 19.4759C212.759 19.2638 212.143 19.1578 211.426 19.1578C210.81 19.1578 210.265 19.2638 209.79 19.4759C209.316 19.6879 208.917 19.9808 208.594 20.3544C208.271 20.7179 208.023 21.1369 207.852 21.6115C207.69 22.0861 207.609 22.591 207.609 23.1262ZM228.784 33.7893C227.643 33.7893 226.608 33.5974 225.679 33.2137C224.76 32.8199 223.967 32.2696 223.301 31.5627C222.645 30.8559 222.14 30.0178 221.786 29.0484C221.433 28.079 221.256 27.0188 221.256 25.8677V25.2315C221.256 23.8986 221.453 22.7122 221.847 21.6721C222.241 20.6219 222.776 19.7334 223.452 19.0063C224.129 18.2793 224.896 17.729 225.755 17.3554C226.613 16.9818 227.502 16.7949 228.42 16.7949C229.592 16.7949 230.601 16.9969 231.45 17.4008C232.308 17.8047 233.01 18.3702 233.555 19.0972C234.1 19.8141 234.504 20.6623 234.767 21.6418C235.029 22.6112 235.161 23.6714 235.161 24.8226V26.0797H222.922V23.7926H232.358V23.5806C232.318 22.8535 232.167 22.1467 231.904 21.4601C231.652 20.7734 231.248 20.2079 230.692 19.7637C230.137 19.3194 229.38 19.0972 228.42 19.0972C227.784 19.0972 227.199 19.2335 226.663 19.5062C226.128 19.7687 225.669 20.1625 225.285 20.6876C224.901 21.2127 224.603 21.8539 224.391 22.6112C224.179 23.3685 224.073 24.2419 224.073 25.2315V25.8677C224.073 26.6452 224.179 27.3773 224.391 28.0639C224.614 28.7404 224.932 29.3362 225.346 29.8512C225.77 30.3662 226.28 30.7701 226.875 31.0629C227.481 31.3557 228.168 31.5021 228.935 31.5021C229.925 31.5021 230.763 31.3002 231.45 30.8963C232.136 30.4924 232.737 29.9522 233.252 29.2756L234.949 30.6237C234.595 31.1588 234.146 31.6688 233.6 32.1534C233.055 32.6381 232.384 33.0319 231.586 33.3349C230.798 33.6378 229.864 33.7893 228.784 33.7893ZM241.234 19.6728V33.4863H238.432V17.0979H241.159L241.234 19.6728ZM246.354 17.007L246.339 19.6122C246.106 19.5617 245.884 19.5314 245.672 19.5213C245.47 19.5011 245.238 19.491 244.975 19.491C244.329 19.491 243.759 19.592 243.264 19.7939C242.769 19.9959 242.35 20.2786 242.007 20.6421C241.663 21.0057 241.391 21.4399 241.189 21.9447C240.997 22.4395 240.871 22.9848 240.81 23.5806L240.023 24.0349C240.023 23.0454 240.118 22.1164 240.31 21.248C240.512 20.3796 240.82 19.6122 241.234 18.9457C241.648 18.2692 242.173 17.7441 242.81 17.3705C243.456 16.9868 244.223 16.7949 245.112 16.7949C245.314 16.7949 245.546 16.8202 245.809 16.8707C246.071 16.9111 246.253 16.9565 246.354 17.007ZM258.001 30.6842V22.2477C258.001 21.6014 257.87 21.041 257.608 20.5664C257.355 20.0817 256.971 19.7081 256.456 19.4456C255.941 19.183 255.305 19.0518 254.548 19.0518C253.841 19.0518 253.22 19.1729 252.685 19.4153C252.16 19.6576 251.746 19.9757 251.443 20.3695C251.15 20.7633 251.004 21.1874 251.004 21.6418H248.202C248.202 21.0561 248.353 20.4755 248.656 19.9C248.959 19.3244 249.393 18.8044 249.959 18.3399C250.534 17.8653 251.221 17.4917 252.019 17.219C252.826 16.9363 253.725 16.7949 254.715 16.7949C255.906 16.7949 256.956 16.9969 257.865 17.4008C258.784 17.8047 259.501 18.4156 260.016 19.2335C260.541 20.0413 260.803 21.0561 260.803 22.278V29.9118C260.803 30.457 260.849 31.0377 260.94 31.6536C261.041 32.2696 261.187 32.7997 261.379 33.244V33.4863H258.456C258.314 33.1632 258.203 32.7341 258.123 32.1989C258.042 31.6536 258.001 31.1487 258.001 30.6842ZM258.486 23.5503L258.516 25.5193H255.684C254.886 25.5193 254.174 25.5849 253.548 25.7162C252.922 25.8374 252.397 26.0242 251.973 26.2766C251.549 26.5291 251.226 26.8471 251.004 27.2308C250.782 27.6045 250.671 28.0437 250.671 28.5486C250.671 29.0636 250.787 29.5331 251.019 29.9572C251.251 30.3813 251.599 30.7196 252.064 30.972C252.539 31.2144 253.119 31.3355 253.806 31.3355C254.664 31.3355 255.421 31.1538 256.078 30.7903C256.734 30.4267 257.254 29.9825 257.638 29.4574C258.032 28.9323 258.244 28.4224 258.274 27.9276L259.471 29.2756C259.4 29.6997 259.208 30.1693 258.895 30.6842C258.582 31.1992 258.163 31.694 257.638 32.1686C257.123 32.6331 256.507 33.0218 255.79 33.3349C255.083 33.6378 254.285 33.7893 253.397 33.7893C252.286 33.7893 251.312 33.5722 250.474 33.138C249.646 32.7038 248.999 32.1231 248.535 31.3961C248.08 30.659 247.853 29.836 247.853 28.9272C247.853 28.0488 248.025 27.2763 248.368 26.6098C248.712 25.9333 249.206 25.3729 249.853 24.9286C250.499 24.4742 251.276 24.1309 252.185 23.8986C253.094 23.6664 254.109 23.5503 255.23 23.5503H258.486ZM268.013 20.5967V33.4863H265.211V17.0979H267.862L268.013 20.5967ZM267.347 24.6711L266.18 24.6257C266.191 23.5048 266.357 22.4698 266.68 21.5206C267.003 20.5614 267.458 19.7283 268.043 19.0215C268.629 18.3146 269.326 17.7694 270.134 17.3857C270.952 16.9919 271.855 16.7949 272.845 16.7949C273.653 16.7949 274.38 16.906 275.026 17.1282C275.672 17.3402 276.223 17.6835 276.677 18.1581C277.141 18.6327 277.495 19.2487 277.737 20.006C277.98 20.7532 278.101 21.6671 278.101 22.7475V33.4863H275.283V22.7172C275.283 21.8589 275.157 21.1723 274.905 20.6573C274.652 20.1322 274.284 19.7536 273.799 19.5213C273.314 19.279 272.719 19.1578 272.012 19.1578C271.315 19.1578 270.679 19.3042 270.103 19.597C269.538 19.8899 269.048 20.2938 268.634 20.8088C268.23 21.3237 267.912 21.9144 267.68 22.5809C267.458 23.2372 267.347 23.934 267.347 24.6711ZM292.975 17.0979H295.519V33.138C295.519 34.5819 295.226 35.8138 294.641 36.8337C294.055 37.8536 293.237 38.626 292.187 39.1511C291.147 39.6863 289.945 39.9539 288.582 39.9539C288.017 39.9539 287.35 39.863 286.583 39.6812C285.825 39.5096 285.078 39.2117 284.341 38.7876C283.614 38.3736 283.003 37.8132 282.508 37.1063L283.978 35.4402C284.664 36.2682 285.381 36.8438 286.128 37.1669C286.886 37.49 287.633 37.6516 288.37 37.6516C289.259 37.6516 290.026 37.485 290.672 37.1518C291.319 36.8185 291.818 36.3238 292.172 35.6674C292.535 35.0212 292.717 34.2235 292.717 33.2743V20.7027L292.975 17.0979ZM281.69 25.4739V25.1558C281.69 23.9037 281.837 22.7677 282.13 21.7478C282.433 20.7179 282.862 19.8343 283.417 19.0972C283.983 18.3601 284.664 17.7946 285.462 17.4008C286.26 16.9969 287.158 16.7949 288.158 16.7949C289.188 16.7949 290.087 16.9767 290.854 17.3402C291.632 17.6936 292.288 18.2137 292.823 18.9003C293.368 19.5768 293.797 20.3948 294.111 21.354C294.424 22.3133 294.641 23.3988 294.762 24.6105V26.004C294.651 27.2056 294.434 28.286 294.111 29.2453C293.797 30.2046 293.368 31.0225 292.823 31.699C292.288 32.3756 291.632 32.8956 290.854 33.2591C290.077 33.6125 289.168 33.7893 288.128 33.7893C287.148 33.7893 286.26 33.5823 285.462 33.1683C284.674 32.7543 283.998 32.1736 283.432 31.4264C282.867 30.6792 282.433 29.8007 282.13 28.7909C281.837 27.7711 281.69 26.6654 281.69 25.4739ZM284.493 25.1558V25.4739C284.493 26.2918 284.573 27.0592 284.735 27.7761C284.907 28.4931 285.164 29.1242 285.507 29.6694C285.861 30.2147 286.31 30.6438 286.855 30.9569C287.401 31.2598 288.052 31.4113 288.809 31.4113C289.738 31.4113 290.506 31.2144 291.112 30.8206C291.717 30.4267 292.197 29.9067 292.55 29.2605C292.914 28.6142 293.197 27.9124 293.399 27.1551V23.5048C293.288 22.9495 293.116 22.4143 292.884 21.8993C292.662 21.3742 292.369 20.9097 292.005 20.5058C291.652 20.0918 291.212 19.7637 290.687 19.5213C290.162 19.279 289.546 19.1578 288.84 19.1578C288.072 19.1578 287.411 19.3194 286.855 19.6425C286.31 19.9555 285.861 20.3897 285.507 20.9451C285.164 21.4903 284.907 22.1265 284.735 22.8535C284.573 23.5705 284.493 24.3379 284.493 25.1558Z" fill="#999999"/>
<path d="M63.7718 17.7211C91.1484 12.8173 128.085 16.4494 112.64 25.0311C97.1945 33.6077 -44.0227 17.7109 13.8517 25.611C71.7262 33.511 94.0377 49.6011 117.723 34.3911C141.407 19.1811 169.943 -13.7315 89.686 6.27039C9.42866 26.2723 29.6 23.8356 63.7718 17.7211Z" fill="#999999"/>
</svg>
