<svg width="359" height="47" viewBox="0 0 359 47" fill="none" xmlns="http://www.w3.org/2000/svg">
<path d="M171.502 23.7777H164.585L164.548 20.8722H170.827C171.864 20.8722 172.77 20.6973 173.545 20.3474C174.32 19.9975 174.92 19.4976 175.345 18.8478C175.782 18.1855 176.001 17.3982 176.001 16.4859C176.001 15.4862 175.807 14.6739 175.42 14.0491C175.045 13.4118 174.464 12.9494 173.676 12.662C172.902 12.3621 171.914 12.2121 170.715 12.2121H165.391V36.543H161.773V9.25041H170.715C172.114 9.25041 173.364 9.39412 174.464 9.68154C175.563 9.95647 176.494 10.3938 177.257 10.9937C178.031 11.581 178.619 12.3308 179.019 13.2431C179.419 14.1553 179.618 15.2488 179.618 16.5234C179.618 17.6481 179.331 18.6666 178.756 19.5788C178.181 20.4786 177.382 21.2159 176.357 21.7907C175.345 22.3656 174.157 22.7342 172.795 22.8967L171.502 23.7777ZM171.333 36.543H163.16L165.204 33.6H171.333C172.483 33.6 173.458 33.4001 174.257 33.0002C175.07 32.6003 175.688 32.0379 176.113 31.3131C176.538 30.5758 176.751 29.7073 176.751 28.7076C176.751 27.6954 176.569 26.8206 176.207 26.0833C175.845 25.346 175.276 24.7774 174.501 24.3775C173.726 23.9776 172.727 23.7777 171.502 23.7777H166.347L166.385 20.8722H173.433L174.201 21.922C175.513 22.0344 176.626 22.4093 177.538 23.0466C178.45 23.6715 179.144 24.4713 179.618 25.446C180.106 26.4207 180.35 27.4954 180.35 28.6701C180.35 30.3697 179.975 31.8068 179.225 32.9814C178.488 34.1436 177.444 35.0309 176.094 35.6432C174.745 36.2431 173.158 36.543 171.333 36.543ZM188.935 7.75082V36.543H185.448V7.75082H188.935ZM198.27 16.261V36.543H194.783V16.261H198.27ZM194.521 10.8812C194.521 10.3189 194.689 9.844 195.027 9.4566C195.377 9.06921 195.889 8.87551 196.564 8.87551C197.226 8.87551 197.732 9.06921 198.082 9.4566C198.445 9.844 198.626 10.3189 198.626 10.8812C198.626 11.4186 198.445 11.8809 198.082 12.2683C197.732 12.6432 197.226 12.8307 196.564 12.8307C195.889 12.8307 195.377 12.6432 195.027 12.2683C194.689 11.8809 194.521 11.4186 194.521 10.8812ZM207.286 20.2911V36.543H203.799V16.261H207.098L207.286 20.2911ZM206.574 25.6334L204.962 25.5772C204.974 24.1901 205.155 22.9092 205.505 21.7345C205.855 20.5473 206.374 19.5164 207.061 18.6416C207.748 17.7668 208.604 17.092 209.629 16.6172C210.654 16.1298 211.841 15.8861 213.191 15.8861C214.14 15.8861 215.015 16.0236 215.815 16.2985C216.615 16.5609 217.308 16.9796 217.896 17.5544C218.483 18.1292 218.939 18.8665 219.264 19.7663C219.589 20.666 219.751 21.7533 219.751 23.0279V36.543H216.283V23.1966C216.283 22.1344 216.102 21.2846 215.74 20.6473C215.39 20.01 214.89 19.5476 214.24 19.2602C213.59 18.9603 212.828 18.8103 211.953 18.8103C210.929 18.8103 210.073 18.9915 209.385 19.3539C208.698 19.7163 208.148 20.2162 207.736 20.8535C207.323 21.4908 207.024 22.2219 206.836 23.0466C206.661 23.8589 206.574 24.7212 206.574 25.6334ZM219.714 23.7215L217.389 24.4338C217.402 23.3216 217.583 22.2531 217.933 21.2284C218.295 20.2037 218.814 19.2914 219.489 18.4916C220.176 17.6919 221.02 17.0608 222.019 16.5984C223.019 16.1235 224.163 15.8861 225.45 15.8861C226.537 15.8861 227.499 16.0298 228.336 16.3172C229.186 16.6047 229.899 17.0483 230.473 17.6481C231.061 18.2355 231.504 18.9915 231.804 19.9163C232.104 20.841 232.254 21.9407 232.254 23.2154V36.543H228.768V23.1779C228.768 22.0407 228.586 21.1597 228.224 20.5348C227.874 19.8975 227.374 19.4539 226.724 19.2039C226.087 18.9415 225.325 18.8103 224.438 18.8103C223.675 18.8103 223 18.9415 222.413 19.2039C221.826 19.4664 221.332 19.8288 220.932 20.2911C220.532 20.741 220.226 21.2596 220.014 21.847C219.814 22.4343 219.714 23.0591 219.714 23.7215ZM240.971 20.1599V44.3408H237.484V16.261H240.671L240.971 20.1599ZM254.636 26.2333V26.6269C254.636 28.1015 254.461 29.4699 254.111 30.7321C253.761 31.9817 253.248 33.0689 252.574 33.9937C251.911 34.9184 251.093 35.637 250.118 36.1493C249.143 36.6617 248.025 36.9179 246.763 36.9179C245.476 36.9179 244.338 36.7054 243.351 36.2805C242.364 35.8557 241.527 35.2371 240.839 34.4248C240.152 33.6125 239.602 32.6378 239.19 31.5006C238.79 30.3634 238.515 29.0825 238.365 27.6579V25.5585C238.515 24.0589 238.796 22.7155 239.208 21.5283C239.621 20.3411 240.164 19.3289 240.839 18.4916C241.527 17.6419 242.358 16.9983 243.332 16.5609C244.307 16.111 245.432 15.8861 246.706 15.8861C247.981 15.8861 249.112 16.136 250.099 16.6359C251.087 17.1233 251.918 17.8231 252.592 18.7353C253.267 19.6476 253.773 20.741 254.111 22.0157C254.461 23.2778 254.636 24.6837 254.636 26.2333ZM251.149 26.6269V26.2333C251.149 25.2211 251.043 24.2713 250.83 23.3841C250.618 22.4843 250.287 21.697 249.837 21.0222C249.399 20.3349 248.837 19.7975 248.15 19.4101C247.462 19.0102 246.644 18.8103 245.694 18.8103C244.819 18.8103 244.057 18.9603 243.407 19.2602C242.77 19.5601 242.226 19.9662 241.777 20.4786C241.327 20.9785 240.958 21.5533 240.671 22.2031C240.396 22.8405 240.189 23.5028 240.052 24.1901V29.045C240.302 29.9198 240.652 30.7445 241.102 31.5193C241.552 32.2816 242.151 32.9002 242.901 33.3751C243.651 33.8375 244.595 34.0686 245.732 34.0686C246.669 34.0686 247.475 33.8749 248.15 33.4876C248.837 33.0877 249.399 32.5441 249.837 31.8567C250.287 31.1694 250.618 30.3821 250.83 29.4949C251.043 28.5951 251.149 27.6391 251.149 26.6269Z" fill="#999999"/>
<path d="M87.2649 16.4776C118.24 16.4776 143.35 14.2001 143.35 11.3907C143.35 8.58122 118.24 6.30371 87.2649 6.30371C56.2899 6.30371 31.1797 8.58122 31.1797 11.3907C31.1797 14.2001 56.2899 16.4776 87.2649 16.4776Z" fill="#999999"/>
<path d="M69.4663 11.3907C65.6529 11.3907 61.9181 11.4771 58.262 11.6297C54.4879 8.54196 43.3229 6.30371 30.153 6.30371C13.8773 6.30371 0.667969 9.72215 0.667969 13.9342C0.667969 16.2691 4.73691 18.3598 11.1253 19.7587C4.50103 22.4955 0.667969 25.7257 0.667969 29.195C0.667969 39.0281 31.47 46.9994 69.4663 46.9994C107.463 46.9994 138.265 39.0281 138.265 29.195C138.265 19.3619 107.463 11.3907 69.4663 11.3907ZM96.2977 34.282C92.8971 32.761 86.5676 31.7385 79.2946 31.7385C72.0217 31.7385 65.6922 32.761 62.2916 34.282C60.6208 33.5342 59.638 32.6643 59.638 31.7385C59.638 28.9305 68.4442 26.6516 79.2946 26.6516C90.1451 26.6516 98.9513 28.9305 98.9513 31.7385C98.9513 32.6643 97.9685 33.5342 96.2977 34.282Z" fill="#999999"/>
</svg>
