<svg width="338" height="47" viewBox="0 0 338 47" fill="none" xmlns="http://www.w3.org/2000/svg">
<path d="M173.645 43.7979V19.617L173.945 15.718H177.131V43.7979H173.645ZM160.017 26.084V25.6903C160.017 24.1407 160.198 22.7349 160.561 21.4727C160.923 20.1981 161.454 19.1046 162.154 18.1924C162.854 17.2801 163.697 16.5803 164.685 16.0929C165.684 15.5931 166.821 15.3431 168.096 15.3431C169.371 15.3431 170.489 15.5681 171.451 16.0179C172.426 16.4553 173.251 17.0989 173.926 17.9487C174.613 18.7859 175.157 19.7982 175.557 20.9853C175.956 22.1725 176.231 23.5159 176.381 25.0155V26.74C176.244 28.2271 175.975 29.5643 175.575 30.7514C175.175 31.9386 174.632 32.9508 173.945 33.7881C173.27 34.6254 172.439 35.2689 171.451 35.7188C170.477 36.1562 169.346 36.3749 168.059 36.3749C166.809 36.3749 165.684 36.1187 164.685 35.6064C163.697 35.094 162.854 34.3754 162.154 33.4507C161.467 32.5259 160.936 31.4387 160.561 30.1891C160.198 28.9269 160.017 27.5586 160.017 26.084ZM163.504 25.6903V26.084C163.504 27.0962 163.61 28.0522 163.822 28.9519C164.035 29.8392 164.36 30.6265 164.797 31.3138C165.247 32.0011 165.809 32.5447 166.484 32.9446C167.171 33.332 167.984 33.5257 168.921 33.5257C170.071 33.5257 171.027 33.2757 171.789 32.7759C172.564 32.276 173.182 31.6199 173.645 30.8077C174.107 29.9829 174.463 29.1019 174.713 28.1646V23.6471C174.576 22.9598 174.357 22.2912 174.057 21.6414C173.77 20.9916 173.395 20.4105 172.932 19.8981C172.47 19.3733 171.908 18.9609 171.245 18.661C170.595 18.3486 169.833 18.1924 168.958 18.1924C168.009 18.1924 167.19 18.3923 166.503 18.7922C165.816 19.1921 165.247 19.7419 164.797 20.4417C164.36 21.1291 164.035 21.9226 163.822 22.8223C163.61 23.7221 163.504 24.6781 163.504 25.6903ZM186.166 18.9047V36H182.698V15.718H186.072L186.166 18.9047ZM192.502 15.6056L192.483 18.8297C192.196 18.7672 191.921 18.7297 191.658 18.7172C191.409 18.6922 191.121 18.6797 190.796 18.6797C189.996 18.6797 189.29 18.8047 188.678 19.0546C188.066 19.3046 187.547 19.6545 187.122 20.1043C186.697 20.5542 186.36 21.0916 186.11 21.7164C185.873 22.3287 185.716 23.0035 185.641 23.7408L184.667 24.3032C184.667 23.0785 184.785 21.9288 185.023 20.8541C185.273 19.7794 185.654 18.8297 186.166 18.0049C186.679 17.1676 187.328 16.5178 188.116 16.0554C188.915 15.5806 189.865 15.3431 190.965 15.3431C191.215 15.3431 191.502 15.3744 191.827 15.4369C192.152 15.4868 192.377 15.5431 192.502 15.6056ZM203.449 33.5257C204.274 33.5257 205.036 33.357 205.736 33.0196C206.436 32.6822 207.011 32.2198 207.46 31.6324C207.91 31.0326 208.166 30.3515 208.229 29.5892H211.528C211.466 30.7889 211.059 31.9074 210.31 32.9446C209.572 33.9693 208.604 34.8003 207.404 35.4377C206.205 36.0625 204.886 36.3749 203.449 36.3749C201.924 36.3749 200.594 36.1062 199.456 35.5689C198.332 35.0315 197.394 34.2942 196.645 33.357C195.907 32.4197 195.351 31.345 194.976 30.1328C194.614 28.9082 194.433 27.6148 194.433 26.2527V25.4654C194.433 24.1032 194.614 22.8161 194.976 21.6039C195.351 20.3793 195.907 19.2983 196.645 18.3611C197.394 17.4238 198.332 16.6865 199.456 16.1492C200.594 15.6118 201.924 15.3431 203.449 15.3431C205.036 15.3431 206.423 15.668 207.61 16.3179C208.798 16.9552 209.729 17.83 210.403 18.9422C211.091 20.0419 211.466 21.2915 211.528 22.6911H208.229C208.166 21.8539 207.929 21.0978 207.517 20.423C207.117 19.7482 206.567 19.2108 205.867 18.8109C205.18 18.3985 204.374 18.1924 203.449 18.1924C202.387 18.1924 201.493 18.4048 200.768 18.8297C200.056 19.2421 199.488 19.8044 199.063 20.5167C198.65 21.2165 198.35 21.9976 198.163 22.8598C197.988 23.7096 197.901 24.5781 197.901 25.4654V26.2527C197.901 27.1399 197.988 28.0147 198.163 28.8769C198.338 29.7392 198.632 30.5202 199.044 31.2201C199.469 31.9199 200.037 32.4822 200.75 32.9071C201.475 33.3195 202.374 33.5257 203.449 33.5257ZM214.508 26.084V25.6528C214.508 24.1907 214.721 22.8348 215.146 21.5852C215.571 20.323 216.183 19.2296 216.983 18.3048C217.783 17.3676 218.751 16.6428 219.888 16.1304C221.025 15.6056 222.3 15.3431 223.712 15.3431C225.137 15.3431 226.418 15.6056 227.555 16.1304C228.705 16.6428 229.679 17.3676 230.479 18.3048C231.291 19.2296 231.91 20.323 232.335 21.5852C232.76 22.8348 232.972 24.1907 232.972 25.6528V26.084C232.972 27.5461 232.76 28.9019 232.335 30.1516C231.91 31.4013 231.291 32.4947 230.479 33.432C229.679 34.3567 228.711 35.0815 227.574 35.6064C226.449 36.1187 225.174 36.3749 223.75 36.3749C222.325 36.3749 221.044 36.1187 219.907 35.6064C218.77 35.0815 217.795 34.3567 216.983 33.432C216.183 32.4947 215.571 31.4013 215.146 30.1516C214.721 28.9019 214.508 27.5461 214.508 26.084ZM217.976 25.6528V26.084C217.976 27.0962 218.095 28.0522 218.332 28.9519C218.57 29.8392 218.926 30.6265 219.401 31.3138C219.888 32.0011 220.494 32.5447 221.219 32.9446C221.944 33.332 222.787 33.5257 223.75 33.5257C224.699 33.5257 225.53 33.332 226.243 32.9446C226.968 32.5447 227.567 32.0011 228.042 31.3138C228.517 30.6265 228.873 29.8392 229.111 28.9519C229.361 28.0522 229.486 27.0962 229.486 26.084V25.6528C229.486 24.6531 229.361 23.7096 229.111 22.8223C228.873 21.9226 228.511 21.1291 228.024 20.4417C227.549 19.7419 226.949 19.1921 226.224 18.7922C225.512 18.3923 224.674 18.1924 223.712 18.1924C222.762 18.1924 221.925 18.3923 221.2 18.7922C220.488 19.1921 219.888 19.7419 219.401 20.4417C218.926 21.1291 218.57 21.9226 218.332 22.8223C218.095 23.7096 217.976 24.6531 217.976 25.6528Z" fill="#999999"/>
<path d="M117.554 5.51562H0.298828V20.7765H117.554V5.51562Z" fill="#999999"/>
<path d="M127.726 5.51562H20.6406V15.6895H127.726V5.51562Z" fill="#999999"/>
<path d="M142.981 5.51562H30.8105V20.7765H142.981V5.51562Z" fill="#999999"/>
<path d="M132.81 20.7764H15.5547V46.2112H132.81V20.7764Z" fill="#999999"/>
<path d="M112.469 36.0371H0.298828V46.211H112.469V36.0371Z" fill="#999999"/>
<path d="M112.469 25.8633H0.298828V30.9502H112.469V25.8633Z" fill="#999999"/>
<path opacity="0.8902" d="M142.98 36.0371H35.8945V46.211H142.98V36.0371Z" fill="#999999"/>
<path d="M142.98 25.8633H35.8945V30.9502H142.98V25.8633Z" fill="#999999"/>
</svg>
