<svg width="502" height="42" viewBox="0 0 502 42" fill="none" xmlns="http://www.w3.org/2000/svg">
<path d="M178.05 18.7395V20.133C178.05 21.789 177.843 23.2734 177.429 24.5861C177.015 25.8988 176.419 27.0146 175.641 27.9334C174.864 28.8523 173.93 29.5541 172.839 30.0388C171.759 30.5235 170.547 30.7658 169.204 30.7658C167.902 30.7658 166.705 30.5235 165.614 30.0388C164.534 29.5541 163.595 28.8523 162.797 27.9334C162.01 27.0146 161.399 25.8988 160.964 24.5861C160.53 23.2734 160.313 21.789 160.313 20.133V18.7395C160.313 17.0835 160.525 15.6042 160.949 14.3016C161.384 12.9889 161.994 11.8732 162.782 10.9543C163.57 10.0253 164.504 9.31846 165.584 8.83377C166.675 8.34908 167.871 8.10674 169.174 8.10674C170.517 8.10674 171.729 8.34908 172.809 8.83377C173.9 9.31846 174.834 10.0253 175.611 10.9543C176.399 11.8732 176.999 12.9889 177.414 14.3016C177.838 15.6042 178.05 17.0835 178.05 18.7395ZM175.157 20.133V18.7093C175.157 17.3966 175.02 16.2353 174.748 15.2256C174.485 14.2158 174.096 13.3676 173.581 12.681C173.066 11.9943 172.435 11.4743 171.688 11.1209C170.951 10.7675 170.113 10.5908 169.174 10.5908C168.265 10.5908 167.442 10.7675 166.705 11.1209C165.978 11.4743 165.352 11.9943 164.827 12.681C164.312 13.3676 163.913 14.2158 163.63 15.2256C163.348 16.2353 163.206 17.3966 163.206 18.7093V20.133C163.206 21.4558 163.348 22.6271 163.63 23.647C163.913 24.6568 164.317 25.51 164.842 26.2067C165.377 26.8934 166.008 27.4134 166.735 27.7668C167.472 28.1202 168.295 28.2969 169.204 28.2969C170.153 28.2969 170.996 28.1202 171.734 27.7668C172.471 27.4134 173.092 26.8934 173.597 26.2067C174.112 25.51 174.5 24.6568 174.763 23.647C175.025 22.6271 175.157 21.4558 175.157 20.133ZM184.805 17.2249V36.7638H181.988V14.0744H184.563L184.805 17.2249ZM195.847 22.1323V22.4504C195.847 23.6419 195.705 24.7476 195.423 25.7675C195.14 26.7773 194.726 27.6557 194.181 28.403C193.645 29.1502 192.984 29.7308 192.196 30.1448C191.409 30.5588 190.505 30.7658 189.485 30.7658C188.445 30.7658 187.526 30.5942 186.729 30.2508C185.931 29.9075 185.254 29.4077 184.699 28.7513C184.144 28.095 183.699 27.3074 183.366 26.3885C183.043 25.4696 182.821 24.4346 182.7 23.2835V21.5871C182.821 20.3754 183.048 19.2899 183.381 18.3306C183.714 17.3713 184.154 16.5534 184.699 15.8769C185.254 15.1902 185.926 14.6702 186.713 14.3168C187.501 13.9533 188.41 13.7715 189.44 13.7715C190.47 13.7715 191.384 13.9735 192.181 14.3774C192.979 14.7712 193.65 15.3366 194.196 16.0738C194.741 16.8109 195.15 17.6944 195.423 18.7244C195.705 19.7443 195.847 20.8802 195.847 22.1323ZM193.029 22.4504V22.1323C193.029 21.3144 192.944 20.547 192.772 19.8301C192.6 19.1031 192.333 18.4669 191.969 17.9216C191.616 17.3663 191.161 16.9321 190.606 16.619C190.051 16.2959 189.389 16.1344 188.622 16.1344C187.915 16.1344 187.299 16.2555 186.774 16.4979C186.259 16.7402 185.82 17.0684 185.456 17.4824C185.093 17.8863 184.795 18.3508 184.563 18.8759C184.34 19.3908 184.174 19.926 184.063 20.4814V24.4043C184.265 25.1111 184.547 25.7776 184.911 26.4036C185.275 27.0196 185.759 27.5194 186.365 27.9031C186.971 28.2768 187.733 28.4636 188.652 28.4636C189.409 28.4636 190.061 28.307 190.606 27.994C191.161 27.6709 191.616 27.2316 191.969 26.6763C192.333 26.1209 192.6 25.4848 192.772 24.7678C192.944 24.0408 193.029 23.2683 193.029 22.4504ZM206.222 30.7658C205.081 30.7658 204.046 30.574 203.117 30.1903C202.198 29.7964 201.405 29.2461 200.739 28.5393C200.083 27.8325 199.578 26.9944 199.224 26.025C198.871 25.0556 198.694 23.9954 198.694 22.8442V22.2081C198.694 20.8752 198.891 19.6887 199.285 18.6487C199.679 17.5985 200.214 16.7099 200.89 15.9829C201.567 15.2559 202.334 14.7055 203.193 14.3319C204.051 13.9583 204.94 13.7715 205.859 13.7715C207.03 13.7715 208.04 13.9735 208.888 14.3774C209.746 14.7813 210.448 15.3467 210.993 16.0738C211.538 16.7907 211.942 17.6389 212.205 18.6184C212.467 19.5877 212.599 20.648 212.599 21.7991V23.0563H200.36V20.7692H209.797V20.5571C209.756 19.8301 209.605 19.1233 209.342 18.4366C209.09 17.75 208.686 17.1845 208.13 16.7402C207.575 16.2959 206.818 16.0738 205.859 16.0738C205.222 16.0738 204.637 16.2101 204.102 16.4827C203.566 16.7453 203.107 17.1391 202.723 17.6641C202.339 18.1892 202.042 18.8304 201.83 19.5877C201.618 20.3451 201.511 21.2185 201.511 22.2081V22.8442C201.511 23.6217 201.618 24.3538 201.83 25.0405C202.052 25.717 202.37 26.3128 202.784 26.8277C203.208 27.3427 203.718 27.7466 204.314 28.0395C204.919 28.3323 205.606 28.4787 206.374 28.4787C207.363 28.4787 208.201 28.2768 208.888 27.8728C209.574 27.4689 210.175 26.9287 210.69 26.2522L212.387 27.6002C212.033 28.1354 211.584 28.6453 211.039 29.13C210.493 29.6147 209.822 30.0085 209.024 30.3114C208.237 30.6144 207.302 30.7658 206.222 30.7658ZM218.672 17.5733V30.4629H215.87V14.0744H218.521L218.672 17.5733ZM218.006 21.6477L216.84 21.6022C216.85 20.4814 217.016 19.4464 217.34 18.4972C217.663 17.5379 218.117 16.7049 218.703 15.998C219.288 15.2912 219.985 14.7459 220.793 14.3622C221.611 13.9684 222.515 13.7715 223.504 13.7715C224.312 13.7715 225.039 13.8826 225.685 14.1047C226.331 14.3168 226.882 14.6601 227.336 15.1347C227.801 15.6093 228.154 16.2252 228.396 16.9826C228.639 17.7298 228.76 18.6436 228.76 19.7241V30.4629H225.943V19.6938C225.943 18.8355 225.816 18.1488 225.564 17.6339C225.312 17.1088 224.943 16.7301 224.458 16.4979C223.974 16.2555 223.378 16.1344 222.671 16.1344C221.974 16.1344 221.338 16.2808 220.763 16.5736C220.197 16.8664 219.707 17.2703 219.293 17.7853C218.89 18.3003 218.571 18.891 218.339 19.5575C218.117 20.2138 218.006 20.9105 218.006 21.6477ZM239.408 30.4629H234.803L234.834 28.0849H239.408C240.983 28.0849 242.296 27.7567 243.346 27.1004C244.396 26.4339 245.184 25.505 245.709 24.3134C246.244 23.1118 246.512 21.7082 246.512 20.1027V18.7547C246.512 17.4925 246.36 16.3717 246.057 15.3922C245.754 14.4026 245.31 13.5696 244.724 12.893C244.139 12.2064 243.422 11.6864 242.574 11.3329C241.735 10.9795 240.771 10.8028 239.681 10.8028H234.712V8.40967H239.681C241.124 8.40967 242.442 8.65201 243.634 9.1367C244.825 9.61129 245.85 10.303 246.708 11.2118C247.577 12.1105 248.243 13.201 248.708 14.4834C249.172 15.7557 249.405 17.1896 249.405 18.785V20.1027C249.405 21.6981 249.172 23.1371 248.708 24.4195C248.243 25.6918 247.572 26.7773 246.693 27.6759C245.825 28.5746 244.775 29.2663 243.543 29.751C242.321 30.2256 240.943 30.4629 239.408 30.4629ZM236.363 8.40967V30.4629H233.44V8.40967H236.363ZM252.631 22.4504V22.1021C252.631 20.9206 252.802 19.825 253.146 18.8153C253.489 17.7954 253.984 16.9119 254.63 16.1646C255.276 15.4073 256.059 14.8217 256.978 14.4077C257.897 13.9836 258.927 13.7715 260.068 13.7715C261.219 13.7715 262.254 13.9836 263.173 14.4077C264.102 14.8217 264.889 15.4073 265.536 16.1646C266.192 16.9119 266.692 17.7954 267.035 18.8153C267.378 19.825 267.55 20.9206 267.55 22.1021V22.4504C267.55 23.6318 267.378 24.7274 267.035 25.7372C266.692 26.747 266.192 27.6305 265.536 28.3878C264.889 29.1351 264.107 29.7207 263.188 30.1448C262.279 30.5588 261.249 30.7658 260.098 30.7658C258.947 30.7658 257.912 30.5588 256.993 30.1448C256.074 29.7207 255.286 29.1351 254.63 28.3878C253.984 27.6305 253.489 26.747 253.146 25.7372C252.802 24.7274 252.631 23.6318 252.631 22.4504ZM255.433 22.1021V22.4504C255.433 23.2683 255.529 24.0408 255.721 24.7678C255.912 25.4848 256.2 26.1209 256.584 26.6763C256.978 27.2316 257.468 27.6709 258.053 27.994C258.639 28.307 259.32 28.4636 260.098 28.4636C260.865 28.4636 261.537 28.307 262.112 27.994C262.698 27.6709 263.183 27.2316 263.566 26.6763C263.95 26.1209 264.238 25.4848 264.43 24.7678C264.632 24.0408 264.733 23.2683 264.733 22.4504V22.1021C264.733 21.2942 264.632 20.5319 264.43 19.8149C264.238 19.0879 263.945 18.4467 263.551 17.8913C263.168 17.3259 262.683 16.8816 262.097 16.5585C261.522 16.2353 260.845 16.0738 260.068 16.0738C259.3 16.0738 258.624 16.2353 258.038 16.5585C257.462 16.8816 256.978 17.3259 256.584 17.8913C256.2 18.4467 255.912 19.0879 255.721 19.8149C255.529 20.5319 255.433 21.2942 255.433 22.1021ZM270.322 22.4504V22.1021C270.322 20.9206 270.493 19.825 270.837 18.8153C271.18 17.7954 271.675 16.9119 272.321 16.1646C272.967 15.4073 273.75 14.8217 274.669 14.4077C275.588 13.9836 276.618 13.7715 277.759 13.7715C278.91 13.7715 279.945 13.9836 280.864 14.4077C281.793 14.8217 282.58 15.4073 283.227 16.1646C283.883 16.9119 284.383 17.7954 284.726 18.8153C285.069 19.825 285.241 20.9206 285.241 22.1021V22.4504C285.241 23.6318 285.069 24.7274 284.726 25.7372C284.383 26.747 283.883 27.6305 283.227 28.3878C282.58 29.1351 281.798 29.7207 280.879 30.1448C279.97 30.5588 278.94 30.7658 277.789 30.7658C276.638 30.7658 275.603 30.5588 274.684 30.1448C273.765 29.7207 272.977 29.1351 272.321 28.3878C271.675 27.6305 271.18 26.747 270.837 25.7372C270.493 24.7274 270.322 23.6318 270.322 22.4504ZM273.124 22.1021V22.4504C273.124 23.2683 273.22 24.0408 273.412 24.7678C273.604 25.4848 273.891 26.1209 274.275 26.6763C274.669 27.2316 275.159 27.6709 275.744 27.994C276.33 28.307 277.011 28.4636 277.789 28.4636C278.556 28.4636 279.228 28.307 279.803 27.994C280.389 27.6709 280.874 27.2316 281.258 26.6763C281.641 26.1209 281.929 25.4848 282.121 24.7678C282.323 24.0408 282.424 23.2683 282.424 22.4504V22.1021C282.424 21.2942 282.323 20.5319 282.121 19.8149C281.929 19.0879 281.636 18.4467 281.242 17.8913C280.859 17.3259 280.374 16.8816 279.788 16.5585C279.213 16.2353 278.536 16.0738 277.759 16.0738C276.991 16.0738 276.315 16.2353 275.729 16.5585C275.154 16.8816 274.669 17.3259 274.275 17.8913C273.891 18.4467 273.604 19.0879 273.412 19.8149C273.22 20.5319 273.124 21.2942 273.124 22.1021ZM291.557 16.6493V30.4629H288.755V14.0744H291.481L291.557 16.6493ZM296.677 13.9836L296.661 16.5887C296.429 16.5383 296.207 16.508 295.995 16.4979C295.793 16.4777 295.561 16.4676 295.298 16.4676C294.652 16.4676 294.082 16.5686 293.587 16.7705C293.092 16.9725 292.673 17.2552 292.33 17.6187C291.986 17.9822 291.714 18.4164 291.512 18.9213C291.32 19.4161 291.194 19.9614 291.133 20.5571L290.345 21.0115C290.345 20.0219 290.441 19.093 290.633 18.2246C290.835 17.3562 291.143 16.5887 291.557 15.9223C291.971 15.2458 292.496 14.7207 293.132 14.3471C293.779 13.9634 294.546 13.7715 295.435 13.7715C295.637 13.7715 295.869 13.7968 296.131 13.8472C296.394 13.8876 296.576 13.9331 296.677 13.9836Z" fill="#999999"/>
<path d="M25.9971 5.68266L143.253 0.595703L25.9971 20.9435L143.253 41.2914L25.9971 36.2044L143.253 0.595703V41.2914" fill="#999999"/>
<path d="M127.997 5.68262H0.571289L127.997 20.9435L0.571289 36.2044H127.997L0.571289 5.68262V36.2044" fill="#999999"/>
</svg>
