<svg width="361" height="42" viewBox="0 0 361 42" fill="none" xmlns="http://www.w3.org/2000/svg">
<path d="M65.3478 30.4619H60.7432L60.7735 28.0839H65.3478C66.923 28.0839 68.2357 27.7557 69.2858 27.0994C70.336 26.433 71.1236 25.504 71.6487 24.3125C72.1839 23.1108 72.4514 21.7073 72.4514 20.1017V18.7537C72.4514 17.4915 72.3 16.3707 71.997 15.3912C71.6941 14.4016 71.2498 13.5686 70.6642 12.892C70.0785 12.2054 69.3616 11.6854 68.5134 11.332C67.6753 10.9785 66.7109 10.8018 65.6204 10.8018H60.6524V8.40869H65.6204C67.0644 8.40869 68.3821 8.65104 69.5736 9.13572C70.7651 9.61031 71.79 10.302 72.6483 11.2108C73.5167 12.1095 74.1832 13.2 74.6477 14.4824C75.1122 15.7547 75.3444 17.1886 75.3444 18.784V20.1017C75.3444 21.6972 75.1122 23.1361 74.6477 24.4185C74.1832 25.6908 73.5117 26.7763 72.6332 27.675C71.7648 28.5737 70.7146 29.2653 69.4827 29.75C68.2609 30.2246 66.8826 30.4619 65.3478 30.4619ZM62.3033 8.40869V30.4619H59.3801V8.40869H62.3033ZM82.1149 16.6484V30.4619H79.3128V14.0735H82.0391L82.1149 16.6484ZM87.2344 13.9826L87.2192 16.5878C86.987 16.5373 86.7648 16.507 86.5528 16.4969C86.3508 16.4767 86.1186 16.4666 85.856 16.4666C85.2098 16.4666 84.6393 16.5676 84.1445 16.7695C83.6497 16.9715 83.2307 17.2542 82.8873 17.6177C82.544 17.9812 82.2714 18.4154 82.0694 18.9203C81.8776 19.4151 81.7514 19.9604 81.6908 20.5561L80.9032 21.0105C80.9032 20.021 80.9991 19.092 81.1909 18.2236C81.3929 17.3552 81.7009 16.5878 82.1149 15.9213C82.5289 15.2448 83.054 14.7197 83.6901 14.3461C84.3364 13.9624 85.1038 13.7705 85.9924 13.7705C86.1943 13.7705 86.4266 13.7958 86.6891 13.8463C86.9516 13.8867 87.1334 13.9321 87.2344 13.9826ZM88.7793 22.4494V22.1011C88.7793 20.9197 88.951 19.8241 89.2943 18.8143C89.6376 17.7944 90.1324 16.9109 90.7786 16.1637C91.4249 15.4064 92.2075 14.8207 93.1263 14.4067C94.0452 13.9826 95.0752 13.7705 96.2162 13.7705C97.3673 13.7705 98.4023 13.9826 99.3212 14.4067C100.25 14.8207 101.038 15.4064 101.684 16.1637C102.34 16.9109 102.84 17.7944 103.184 18.8143C103.527 19.8241 103.699 20.9197 103.699 22.1011V22.4494C103.699 23.6309 103.527 24.7265 103.184 25.7362C102.84 26.746 102.34 27.6295 101.684 28.3869C101.038 29.1341 100.255 29.7197 99.3364 30.1438C98.4276 30.5578 97.3976 30.7648 96.2465 30.7648C95.0954 30.7648 94.0604 30.5578 93.1415 30.1438C92.2226 29.7197 91.435 29.1341 90.7786 28.3869C90.1324 27.6295 89.6376 26.746 89.2943 25.7362C88.951 24.7265 88.7793 23.6309 88.7793 22.4494ZM91.5814 22.1011V22.4494C91.5814 23.2674 91.6773 24.0398 91.8692 24.7669C92.061 25.4838 92.3488 26.1199 92.7325 26.6753C93.1263 27.2307 93.6161 27.6699 94.2017 27.993C94.7874 28.3061 95.469 28.4626 96.2465 28.4626C97.0139 28.4626 97.6854 28.3061 98.261 27.993C98.8466 27.6699 99.3313 27.2307 99.715 26.6753C100.099 26.1199 100.387 25.4838 100.578 24.7669C100.78 24.0398 100.881 23.2674 100.881 22.4494V22.1011C100.881 21.2933 100.78 20.5309 100.578 19.814C100.387 19.0869 100.094 18.4457 99.6999 17.8904C99.3162 17.3249 98.8315 16.8806 98.2458 16.5575C97.6703 16.2344 96.9937 16.0728 96.2162 16.0728C95.4488 16.0728 94.7722 16.2344 94.1866 16.5575C93.611 16.8806 93.1263 17.3249 92.7325 17.8904C92.3488 18.4457 92.061 19.0869 91.8692 19.814C91.6773 20.5309 91.5814 21.2933 91.5814 22.1011ZM110.015 17.2239V36.7628H107.197V14.0735H109.772L110.015 17.2239ZM121.056 22.1314V22.4494C121.056 23.641 120.915 24.7467 120.632 25.7665C120.35 26.7763 119.936 27.6548 119.39 28.402C118.855 29.1492 118.194 29.7298 117.406 30.1438C116.618 30.5578 115.715 30.7648 114.695 30.7648C113.655 30.7648 112.736 30.5932 111.938 30.2499C111.141 29.9065 110.464 29.4067 109.909 28.7504C109.353 28.094 108.909 27.3064 108.576 26.3875C108.253 25.4686 108.03 24.4336 107.909 23.2825V21.5861C108.03 20.3744 108.258 19.2889 108.591 18.3296C108.924 17.3703 109.363 16.5524 109.909 15.8759C110.464 15.1893 111.135 14.6692 111.923 14.3158C112.711 13.9523 113.619 13.7705 114.649 13.7705C115.679 13.7705 116.593 13.9725 117.391 14.3764C118.189 14.7702 118.86 15.3357 119.405 16.0728C119.951 16.8099 120.36 17.6935 120.632 18.7234C120.915 19.7433 121.056 20.8793 121.056 22.1314ZM118.239 22.4494V22.1314C118.239 21.3135 118.153 20.546 117.982 19.8291C117.81 19.1021 117.542 18.4659 117.179 17.9207C116.825 17.3653 116.371 16.9311 115.816 16.6181C115.26 16.2949 114.599 16.1334 113.832 16.1334C113.125 16.1334 112.509 16.2546 111.984 16.4969C111.469 16.7392 111.029 17.0674 110.666 17.4814C110.302 17.8853 110.005 18.3498 109.772 18.8749C109.55 19.3899 109.384 19.925 109.272 20.4804V24.4033C109.474 25.1102 109.757 25.7766 110.121 26.4027C110.484 27.0186 110.969 27.5185 111.575 27.9022C112.181 28.2758 112.943 28.4626 113.862 28.4626C114.619 28.4626 115.27 28.3061 115.816 27.993C116.371 27.6699 116.825 27.2307 117.179 26.6753C117.542 26.1199 117.81 25.4838 117.982 24.7669C118.153 24.0398 118.239 23.2674 118.239 22.4494ZM127.675 7.19698V30.4619H124.858V7.19698H127.675ZM138.975 30.7648C137.834 30.7648 136.799 30.573 135.87 30.1893C134.951 29.7955 134.158 29.2451 133.492 28.5383C132.835 27.8315 132.33 26.9934 131.977 26.024C131.624 25.0546 131.447 23.9944 131.447 22.8433V22.2071C131.447 20.8742 131.644 19.6877 132.038 18.6477C132.431 17.5975 132.967 16.7089 133.643 15.9819C134.32 15.2549 135.087 14.7046 135.945 14.331C136.804 13.9573 137.692 13.7705 138.611 13.7705C139.782 13.7705 140.792 13.9725 141.64 14.3764C142.499 14.7803 143.2 15.3458 143.746 16.0728C144.291 16.7897 144.695 17.6379 144.957 18.6174C145.22 19.5868 145.351 20.647 145.351 21.7981V23.0553H133.113V20.7682H142.549V20.5561C142.509 19.8291 142.357 19.1223 142.095 18.4356C141.842 17.749 141.438 17.1835 140.883 16.7392C140.328 16.2949 139.57 16.0728 138.611 16.0728C137.975 16.0728 137.389 16.2091 136.854 16.4817C136.319 16.7443 135.859 17.1381 135.476 17.6632C135.092 18.1882 134.794 18.8294 134.582 19.5868C134.37 20.3441 134.264 21.2175 134.264 22.2071V22.8433C134.264 23.6208 134.37 24.3528 134.582 25.0395C134.804 25.716 135.122 26.3118 135.536 26.8268C135.96 27.3417 136.47 27.7457 137.066 28.0385C137.672 28.3313 138.359 28.4777 139.126 28.4777C140.116 28.4777 140.954 28.2758 141.64 27.8719C142.327 27.468 142.928 26.9277 143.443 26.2512L145.139 27.5992C144.786 28.1344 144.336 28.6443 143.791 29.129C143.246 29.6137 142.574 30.0075 141.777 30.3104C140.989 30.6134 140.055 30.7648 138.975 30.7648ZM155.484 14.0735V16.2243H146.624V14.0735H155.484ZM149.623 10.0899H152.425V26.4027C152.425 26.958 152.51 27.3771 152.682 27.6598C152.854 27.9426 153.076 28.1294 153.349 28.2202C153.621 28.3111 153.914 28.3566 154.227 28.3566C154.459 28.3566 154.702 28.3364 154.954 28.296C155.217 28.2455 155.414 28.2051 155.545 28.1748L155.56 30.4619C155.338 30.5326 155.045 30.5982 154.681 30.6588C154.328 30.7295 153.899 30.7648 153.394 30.7648C152.707 30.7648 152.076 30.6285 151.501 30.3559C150.925 30.0833 150.466 29.6289 150.122 28.9927C149.789 28.3465 149.623 27.4781 149.623 26.3875V10.0899Z" fill="#999999"/>
<path d="M12.761 12.834C53.2636 -7.21375 125.423 -1.02292 102.755 19.7522C80.087 40.5274 146.664 20.6831 143.454 32.7189C140.243 44.7546 14.2591 43.8288 54.7439 31.7829C95.2108 19.737 99.8656 15.6013 58.2395 23.3538C16.6133 31.1063 -18.2536 28.1813 12.761 12.834Z" fill="#999999"/>
<path d="M12.761 12.834C53.2636 -7.21375 125.423 -1.02292 102.755 19.7522C80.087 40.5274 146.664 20.6831 143.454 32.7189C140.243 44.7546 14.2591 43.8288 54.7439 31.7829C95.2108 19.737 99.8656 15.6013 58.2395 23.3538C16.6133 31.1063 -18.2536 28.1813 12.761 12.834Z" fill="#999999"/>
</svg>
