<svg width="4764" height="38" viewBox="0 0 4764 38" fill="none" xmlns="http://www.w3.org/2000/svg">
<path fill-rule="evenodd" clip-rule="evenodd" d="M9.29989 6.04813C6.92316 8.60189 4.96148 13.132 3.90822 16.6632C3.5765 17.7753 2.45349 18.393 1.39991 18.0429C0.346325 17.6927 -0.238863 16.5073 0.0928548 15.3952C1.21 11.6499 3.40549 6.35668 6.44644 3.08922C7.9787 1.44283 9.95366 0.0684838 12.3107 0.00248417C14.7327 -0.065335 16.9949 1.25746 19.0348 3.72705C20.2747 5.22819 21.1162 6.71393 21.4063 8.2236C21.716 9.83603 21.3568 11.2696 20.5748 12.4581C19.8467 13.5649 18.7939 14.4008 17.7641 15.0646C16.7202 15.7375 15.5281 16.3392 14.401 16.8972C14.3143 16.9401 14.2281 16.9827 14.1424 17.0251C11.858 18.1552 9.90268 19.1225 8.65479 20.3706C8.05532 20.9702 7.72603 21.5389 7.58999 22.1123C7.45688 22.6733 7.45799 23.4513 7.87148 24.5738C8.69994 26.8226 10.7738 28.9737 13.6755 30.6699C16.5424 32.3458 19.9779 33.432 23.1393 33.7083C26.368 33.9905 28.9463 33.4031 30.4235 32.1998C31.1208 31.6318 31.5999 30.9105 31.8348 29.9734C32.0764 29.0095 32.091 27.6846 31.6263 25.8976C30.7572 22.5552 28.8363 20.9612 26.6231 20.3034C24.2822 19.6078 21.4963 19.9451 19.2006 20.8547C18.0648 21.3047 17.138 21.8609 16.5041 22.4068C16.189 22.6783 15.9768 22.9209 15.8459 23.1148C15.791 23.1961 15.756 23.2604 15.7338 23.3076C15.7669 23.339 15.8159 23.381 15.8872 23.4341C16.3516 23.7801 17.3771 24.2323 19.3212 24.5343C20.414 24.7041 21.1695 25.7769 21.0086 26.9304C20.8477 28.0839 19.8314 28.8813 18.7387 28.7115C16.5506 28.3716 14.7978 27.7904 13.5807 26.8837C12.259 25.8991 11.4667 24.4116 11.7583 22.6693C12.0074 21.1806 12.9842 19.9891 13.9753 19.1355C15.0171 18.2381 16.3481 17.4751 17.7949 16.9018C20.6643 15.7649 24.3427 15.2394 27.707 16.2392C31.1989 17.2769 34.2241 19.9364 35.4836 24.7801C36.0833 27.0861 36.1683 29.1922 35.7017 31.0535C35.2283 32.9417 34.2205 34.44 32.8674 35.5423C30.2437 37.6796 26.4673 38.2359 22.8092 37.9161C19.0837 37.5905 15.1001 36.3292 11.7376 34.3635C8.40967 32.4181 5.44363 29.6335 4.14341 26.1039C3.49257 24.3372 3.33716 22.6573 3.70981 21.0866C4.07952 19.5282 4.91826 18.2912 5.90355 17.3057C7.64275 15.5662 10.1611 14.3262 12.2278 13.3087C12.389 13.2293 12.5474 13.1513 12.7025 13.0745C13.8448 12.509 14.848 11.9971 15.6794 11.4612C16.5249 10.9161 17.0275 10.4478 17.2893 10.0498C17.4974 9.73354 17.5627 9.4617 17.4861 9.06271C17.3897 8.56098 17.0338 7.72934 16.0198 6.50178C14.4535 4.60547 13.2431 4.20008 12.4168 4.22322C11.5255 4.24818 10.4765 4.78392 9.29989 6.04813ZM15.6714 23.2349C15.6726 23.235 15.6779 23.2416 15.6837 23.2545C15.6732 23.2412 15.6702 23.2348 15.6714 23.2349Z" fill="#111111"/>
<path d="M51.4725 28.2513C51.1179 28.2513 50.8192 28.13 50.5765 27.8873C50.3339 27.6447 50.2125 27.346 50.2125 26.9913V14.9793C50.2125 14.6247 50.3339 14.326 50.5765 14.0833C50.8192 13.822 51.1179 13.6913 51.4725 13.6913C51.8272 13.6913 52.1259 13.822 52.3685 14.0833C52.6299 14.326 52.7605 14.6247 52.7605 14.9793V16.1273C53.4699 15.3433 54.2352 14.718 55.0565 14.2513C55.8779 13.7847 56.8485 13.5513 57.9685 13.5513C58.9952 13.5513 59.8819 13.794 60.6286 14.2793C61.3939 14.7647 61.9725 15.4273 62.3645 16.2673C62.7752 17.1073 62.9806 18.0313 62.9806 19.0393V26.9913C62.9806 27.346 62.8499 27.6447 62.5886 27.8873C62.3459 28.13 62.0472 28.2513 61.6925 28.2513C61.3379 28.2513 61.0392 28.13 60.7965 27.8873C60.5539 27.6447 60.4326 27.346 60.4326 26.9913V19.3193C60.4326 17.042 59.4059 15.9033 57.3525 15.9033C56.4192 15.9033 55.5792 16.146 54.8325 16.6313C54.1045 17.1167 53.4139 17.77 52.7605 18.5913V26.9913C52.7605 27.346 52.6299 27.6447 52.3685 27.8873C52.1259 28.13 51.8272 28.2513 51.4725 28.2513ZM70.6436 28.2513C70.2889 28.2513 69.9902 28.13 69.7476 27.8873C69.5049 27.6447 69.3836 27.346 69.3836 26.9913V16.0153H67.7316C67.4329 16.0153 67.1716 15.9127 66.9476 15.7073C66.7422 15.4833 66.6396 15.222 66.6396 14.9233C66.6396 14.606 66.7422 14.3447 66.9476 14.1393C67.1716 13.934 67.4329 13.8313 67.7316 13.8313H69.3836V12.2073C69.3836 11.0873 69.5796 10.1727 69.9716 9.46333C70.3822 8.73533 70.9049 8.21266 71.5396 7.89533C72.1929 7.55933 72.8742 7.39133 73.5836 7.39133C74.4609 7.39133 75.2729 7.57799 76.0196 7.95133C76.2062 8.04466 76.3556 8.18466 76.4676 8.37133C76.5982 8.53933 76.6636 8.72599 76.6636 8.93133C76.6636 9.21133 76.5609 9.46333 76.3556 9.68733C76.1502 9.89266 75.9076 9.99533 75.6276 9.99533C75.4222 9.99533 75.2076 9.96733 74.9836 9.91133C74.5356 9.85533 74.2836 9.82733 74.2276 9.82733C73.4622 9.82733 72.8836 10.0047 72.4916 10.3593C72.1182 10.714 71.9316 11.358 71.9316 12.2913V13.8313H75.4316C75.7489 13.8313 76.0102 13.934 76.2156 14.1393C76.4209 14.3447 76.5236 14.606 76.5236 14.9233C76.5236 15.222 76.4209 15.4833 76.2156 15.7073C76.0102 15.9127 75.7489 16.0153 75.4316 16.0153H71.9316V26.9913C71.9316 27.346 71.8009 27.6447 71.5396 27.8873C71.2969 28.13 70.9982 28.2513 70.6436 28.2513ZM85.0655 28.3913C82.3402 28.3913 80.9775 27.1593 80.9775 24.6953V16.0153H78.9895C78.8402 16.0153 78.7095 15.9687 78.5975 15.8753C78.5042 15.7633 78.4575 15.6327 78.4575 15.4833C78.4575 15.2967 78.5415 15.138 78.7095 15.0073L82.5175 11.2833C82.6855 11.1153 82.8442 11.0313 82.9935 11.0313C83.1429 11.0313 83.2642 11.0873 83.3575 11.1993C83.4695 11.3113 83.5255 11.442 83.5255 11.5913V13.8313H86.6895C87.0069 13.8313 87.2682 13.934 87.4735 14.1393C87.6789 14.3447 87.7815 14.606 87.7815 14.9233C87.7815 15.222 87.6789 15.4833 87.4735 15.7073C87.2682 15.9127 87.0069 16.0153 86.6895 16.0153H83.5255V24.4713C83.5255 25.1993 83.6935 25.666 84.0295 25.8713C84.3842 26.058 84.8229 26.1513 85.3455 26.1513C85.7189 26.1513 86.0922 26.0953 86.4655 25.9833C86.5402 25.9647 86.6149 25.946 86.6895 25.9273C86.7829 25.9087 86.8949 25.8993 87.0255 25.8993C87.2869 25.8993 87.5202 26.002 87.7255 26.2073C87.9309 26.394 88.0335 26.6273 88.0335 26.9073C88.0335 27.3367 87.8189 27.6633 87.3895 27.8873C86.6615 28.2233 85.8869 28.3913 85.0655 28.3913ZM93.489 28.2513C93.1343 28.2513 92.8356 28.13 92.593 27.8873C92.3503 27.6447 92.229 27.346 92.229 26.9913V8.81933C92.229 8.46466 92.3503 8.16599 92.593 7.92333C92.8356 7.66199 93.1343 7.53133 93.489 7.53133C93.8623 7.53133 94.1703 7.65266 94.413 7.89533C94.6556 8.13799 94.777 8.44599 94.777 8.81933V26.9913C94.777 27.346 94.6463 27.6447 94.385 27.8873C94.1423 28.13 93.8436 28.2513 93.489 28.2513ZM104.242 28.3913C103.42 28.3913 102.655 28.2233 101.946 27.8873C101.255 27.5513 100.704 27.066 100.294 26.4313C99.8829 25.778 99.6776 25.0313 99.6776 24.1913C99.6776 22.81 100.219 21.7087 101.302 20.8873C102.403 20.066 104.008 19.6553 106.118 19.6553H109.506V19.4313C109.506 18.1993 109.198 17.3127 108.582 16.7713C107.984 16.23 107.042 15.9593 105.754 15.9593C105.044 15.9593 104.41 16.0153 103.85 16.1273C103.308 16.2393 102.702 16.4073 102.03 16.6313C101.88 16.6687 101.759 16.6873 101.666 16.6873C101.386 16.6873 101.143 16.5847 100.938 16.3793C100.732 16.174 100.63 15.922 100.63 15.6233C100.63 15.1193 100.872 14.7647 101.358 14.5593C102.944 13.8873 104.559 13.5513 106.202 13.5513C107.49 13.5513 108.572 13.8127 109.45 14.3353C110.346 14.858 110.999 15.5393 111.41 16.3793C111.839 17.2007 112.054 18.0967 112.054 19.0673V26.9913C112.054 27.346 111.923 27.6447 111.662 27.8873C111.419 28.13 111.12 28.2513 110.766 28.2513C110.411 28.2513 110.112 28.13 109.87 27.8873C109.627 27.6447 109.506 27.346 109.506 26.9913V26.2633C108.124 27.682 106.37 28.3913 104.242 28.3913ZM105.194 26.1513C106.015 26.1513 106.808 25.9553 107.574 25.5633C108.339 25.1527 108.983 24.6487 109.506 24.0513V21.6993H106.454C103.635 21.6993 102.226 22.4367 102.226 23.9113C102.226 24.5833 102.45 25.1247 102.898 25.5353C103.364 25.946 104.13 26.1513 105.194 26.1513ZM118.984 28.2513C118.63 28.2513 118.331 28.13 118.088 27.8873C117.846 27.6447 117.724 27.346 117.724 26.9913V14.9793C117.724 14.6247 117.846 14.326 118.088 14.0833C118.331 13.822 118.63 13.6913 118.984 13.6913C119.339 13.6913 119.638 13.822 119.88 14.0833C120.142 14.326 120.272 14.6247 120.272 14.9793V16.1273C120.982 15.3433 121.747 14.718 122.568 14.2513C123.39 13.7847 124.36 13.5513 125.48 13.5513C126.507 13.5513 127.394 13.794 128.14 14.2793C128.906 14.7647 129.484 15.4273 129.876 16.2673C130.287 17.1073 130.492 18.0313 130.492 19.0393V26.9913C130.492 27.346 130.362 27.6447 130.1 27.8873C129.858 28.13 129.559 28.2513 129.204 28.2513C128.85 28.2513 128.551 28.13 128.308 27.8873C128.066 27.6447 127.944 27.346 127.944 26.9913V19.3193C127.944 17.042 126.918 15.9033 124.864 15.9033C123.931 15.9033 123.091 16.146 122.344 16.6313C121.616 17.1167 120.926 17.77 120.272 18.5913V26.9913C120.272 27.346 120.142 27.6447 119.88 27.8873C119.638 28.13 119.339 28.2513 118.984 28.2513ZM142.095 28.3913C140.937 28.3913 139.836 28.102 138.791 27.5233C137.764 26.926 136.924 26.0673 136.271 24.9473C135.636 23.8087 135.319 22.4833 135.319 20.9713C135.319 19.4593 135.636 18.1433 136.271 17.0233C136.924 15.8847 137.764 15.026 138.791 14.4473C139.836 13.85 140.937 13.5513 142.095 13.5513C143.924 13.5513 145.52 14.2607 146.883 15.6793V8.81933C146.883 8.44599 147.004 8.13799 147.247 7.89533C147.508 7.65266 147.816 7.53133 148.171 7.53133C148.525 7.53133 148.824 7.66199 149.067 7.92333C149.309 8.16599 149.431 8.46466 149.431 8.81933V26.9913C149.431 27.346 149.309 27.6447 149.067 27.8873C148.824 28.13 148.525 28.2513 148.171 28.2513C147.816 28.2513 147.508 28.13 147.247 27.8873C147.004 27.6447 146.883 27.346 146.883 26.9913V26.2633C145.52 27.682 143.924 28.3913 142.095 28.3913ZM142.459 26.0113C143.317 26.0113 144.12 25.8247 144.867 25.4513C145.632 25.0593 146.304 24.546 146.883 23.9113V18.0313C146.304 17.3967 145.632 16.8927 144.867 16.5193C144.12 16.1273 143.317 15.9313 142.459 15.9313C141.077 15.9313 139.967 16.37 139.127 17.2473C138.287 18.1247 137.867 19.366 137.867 20.9713C137.867 22.5767 138.287 23.818 139.127 24.6953C139.967 25.5727 141.077 26.0113 142.459 26.0113ZM156.455 10.9193C156.063 10.9193 155.727 10.7793 155.447 10.4993C155.167 10.2193 155.027 9.88333 155.027 9.49133V9.37933C155.027 8.98733 155.167 8.65133 155.447 8.37133C155.727 8.09133 156.063 7.95133 156.455 7.95133H156.623C157.015 7.95133 157.351 8.09133 157.631 8.37133C157.911 8.65133 158.051 8.98733 158.051 9.37933V9.49133C158.051 9.88333 157.911 10.2193 157.631 10.4993C157.351 10.7793 157.015 10.9193 156.623 10.9193H156.455ZM156.511 28.2513C156.156 28.2513 155.858 28.13 155.615 27.8873C155.372 27.6447 155.251 27.346 155.251 26.9913V14.9793C155.251 14.6247 155.372 14.326 155.615 14.0833C155.858 13.822 156.156 13.6913 156.511 13.6913C156.884 13.6913 157.192 13.8127 157.435 14.0553C157.678 14.298 157.799 14.606 157.799 14.9793V26.9913C157.799 27.346 157.668 27.6447 157.407 27.8873C157.164 28.13 156.866 28.2513 156.511 28.2513ZM164.883 28.2513C164.529 28.2513 164.23 28.13 163.987 27.8873C163.745 27.6447 163.623 27.346 163.623 26.9913V14.9793C163.623 14.6247 163.745 14.326 163.987 14.0833C164.23 13.822 164.529 13.6913 164.883 13.6913C165.238 13.6913 165.537 13.822 165.779 14.0833C166.041 14.326 166.171 14.6247 166.171 14.9793V16.1273C166.881 15.3433 167.646 14.718 168.467 14.2513C169.289 13.7847 170.259 13.5513 171.379 13.5513C172.406 13.5513 173.293 13.794 174.039 14.2793C174.805 14.7647 175.383 15.4273 175.775 16.2673C176.186 17.1073 176.391 18.0313 176.391 19.0393V26.9913C176.391 27.346 176.261 27.6447 175.999 27.8873C175.757 28.13 175.458 28.2513 175.103 28.2513C174.749 28.2513 174.45 28.13 174.207 27.8873C173.965 27.6447 173.843 27.346 173.843 26.9913V19.3193C173.843 17.042 172.817 15.9033 170.763 15.9033C169.83 15.9033 168.99 16.146 168.243 16.6313C167.515 17.1167 166.825 17.77 166.171 18.5913V26.9913C166.171 27.346 166.041 27.6447 165.779 27.8873C165.537 28.13 165.238 28.2513 164.883 28.2513ZM188.75 34.8313C187.667 34.8313 186.575 34.6913 185.474 34.4113C184.373 34.1313 183.467 33.786 182.758 33.3753C182.422 33.17 182.254 32.8433 182.254 32.3953C182.254 32.0967 182.357 31.826 182.562 31.5833C182.786 31.3593 183.057 31.2473 183.374 31.2473C183.523 31.2473 183.691 31.2847 183.878 31.3593C185.297 32.0687 186.837 32.4233 188.498 32.4233C191.354 32.4233 192.782 30.902 192.782 27.8593V25.9833C191.457 27.402 189.861 28.1113 187.994 28.1113C186.893 28.1113 185.819 27.8407 184.774 27.2993C183.747 26.7393 182.898 25.918 182.226 24.8353C181.554 23.734 181.218 22.3993 181.218 20.8313C181.218 19.2633 181.554 17.938 182.226 16.8553C182.898 15.754 183.747 14.9327 184.774 14.3913C185.819 13.8313 186.893 13.5513 187.994 13.5513C189.861 13.5513 191.457 14.2607 192.782 15.6793V14.9793C192.782 14.6247 192.903 14.326 193.146 14.0833C193.389 13.822 193.687 13.6913 194.042 13.6913C194.397 13.6913 194.695 13.822 194.938 14.0833C195.199 14.326 195.33 14.6247 195.33 14.9793V27.4953C195.33 29.8473 194.761 31.658 193.622 32.9273C192.483 34.1967 190.859 34.8313 188.75 34.8313ZM188.526 25.7873C189.403 25.7873 190.178 25.6007 190.85 25.2273C191.522 24.854 192.166 24.35 192.782 23.7153V17.9473C192.166 17.3127 191.522 16.8087 190.85 16.4353C190.178 16.062 189.403 15.8753 188.526 15.8753C187.126 15.8753 185.978 16.3047 185.082 17.1633C184.205 18.0033 183.766 19.226 183.766 20.8313C183.766 22.4367 184.205 23.6687 185.082 24.5273C185.978 25.3673 187.126 25.7873 188.526 25.7873Z" fill="#111111"/>
<path d="M50.5765 27.8873L51.2837 27.1802L51.2837 27.1802L50.5765 27.8873ZM50.5765 14.0833L51.2837 14.7904L51.2967 14.7773L51.3093 14.7638L50.5765 14.0833ZM52.3685 14.0833L51.6358 14.7638L51.661 14.7909L51.6881 14.8161L52.3685 14.0833ZM52.7605 16.1273H51.7605V18.7231L53.5021 16.7982L52.7605 16.1273ZM55.0565 14.2513L55.5506 15.1208L55.0565 14.2513ZM60.6286 14.2793L60.0835 15.1178L60.093 15.1238L60.6286 14.2793ZM62.3645 16.2673L61.4584 16.6902L61.4622 16.6984L61.4662 16.7065L62.3645 16.2673ZM62.5886 27.8873L61.9081 27.1545L61.8945 27.1671L61.8814 27.1802L62.5886 27.8873ZM60.7965 27.8873L60.0894 28.5944L60.0894 28.5944L60.7965 27.8873ZM54.8325 16.6313L54.2875 15.7928L54.2778 15.7993L54.8325 16.6313ZM52.7605 18.5913L51.9779 17.9688L51.7605 18.2421V18.5913H52.7605ZM52.3685 27.8873L51.6881 27.1545L51.6745 27.1671L51.6614 27.1802L52.3685 27.8873ZM51.4725 27.2513C51.3732 27.2513 51.3319 27.2285 51.2837 27.1802L49.8694 28.5944C50.3065 29.0315 50.8626 29.2513 51.4725 29.2513V27.2513ZM51.2837 27.1802C51.2354 27.132 51.2125 27.0907 51.2125 26.9913H49.2125C49.2125 27.6013 49.4323 28.1573 49.8694 28.5944L51.2837 27.1802ZM51.2125 26.9913V14.9793H49.2125V26.9913H51.2125ZM51.2125 14.9793C51.2125 14.88 51.2354 14.8387 51.2837 14.7904L49.8694 13.3762C49.4323 13.8133 49.2125 14.3694 49.2125 14.9793H51.2125ZM51.3093 14.7638C51.364 14.7049 51.3977 14.6913 51.4725 14.6913V12.6913C50.8381 12.6913 50.2744 12.9391 49.8438 13.4029L51.3093 14.7638ZM51.4725 14.6913C51.5474 14.6913 51.5811 14.7049 51.6358 14.7638L53.1013 13.4029C52.6707 12.9391 52.107 12.6913 51.4725 12.6913V14.6913ZM51.6881 14.8161C51.7469 14.8708 51.7605 14.9045 51.7605 14.9793H53.7605C53.7605 14.3448 53.5128 13.7812 53.049 13.3505L51.6881 14.8161ZM51.7605 14.9793V16.1273H53.7605V14.9793H51.7605ZM53.5021 16.7982C54.1484 16.0839 54.8321 15.529 55.5506 15.1208L54.5625 13.3819C53.6383 13.907 52.7913 14.6028 52.019 15.4564L53.5021 16.7982ZM55.5506 15.1208C56.1955 14.7543 56.9895 14.5513 57.9685 14.5513V12.5513C56.7076 12.5513 55.5602 12.815 54.5625 13.3819L55.5506 15.1208ZM57.9685 14.5513C58.8321 14.5513 59.5228 14.7533 60.0836 15.1178L61.1735 13.4409C60.241 12.8347 59.1584 12.5513 57.9685 12.5513V14.5513ZM60.093 15.1238C60.6932 15.5045 61.1452 16.0191 61.4584 16.6902L63.2707 15.8444C62.7999 14.8356 62.0946 14.0249 61.1641 13.4348L60.093 15.1238ZM61.4662 16.7065C61.8048 17.3993 61.9806 18.1714 61.9806 19.0393H63.9806C63.9806 17.8912 63.7456 16.8154 63.2629 15.8281L61.4662 16.7065ZM61.9806 19.0393V26.9913H63.9806V19.0393H61.9806ZM61.9806 26.9913C61.9806 27.0662 61.9669 27.0999 61.9081 27.1545L63.269 28.6201C63.7328 28.1894 63.9806 27.6258 63.9806 26.9913H61.9806ZM61.8814 27.1802C61.8332 27.2285 61.7919 27.2513 61.6925 27.2513V29.2513C62.3025 29.2513 62.8586 29.0315 63.2957 28.5944L61.8814 27.1802ZM61.6925 27.2513C61.5932 27.2513 61.5519 27.2285 61.5037 27.1802L60.0894 28.5944C60.5265 29.0315 61.0826 29.2513 61.6925 29.2513V27.2513ZM61.5037 27.1802C61.4554 27.132 61.4326 27.0907 61.4326 26.9913H59.4326C59.4326 27.6013 59.6523 28.1573 60.0894 28.5944L61.5037 27.1802ZM61.4326 26.9913V19.3193H59.4326V26.9913H61.4326ZM61.4326 19.3193C61.4326 18.0506 61.1488 16.9124 60.4052 16.0877C59.6439 15.2433 58.5616 14.9033 57.3525 14.9033V16.9033C58.1968 16.9033 58.6545 17.1327 58.9199 17.427C59.203 17.7409 59.4326 18.3107 59.4326 19.3193H61.4326ZM57.3525 14.9033C56.2355 14.9033 55.2045 15.1969 54.2876 15.7929L55.3775 17.4698C55.954 17.0951 56.6029 16.9033 57.3525 16.9033V14.9033ZM54.2778 15.7993C53.4482 16.3524 52.6834 17.0819 51.9779 17.9688L53.5432 19.2139C54.1443 18.4581 54.7609 17.881 55.3873 17.4634L54.2778 15.7993ZM51.7605 18.5913V26.9913H53.7605V18.5913H51.7605ZM51.7605 26.9913C51.7605 27.0662 51.7469 27.0999 51.6881 27.1545L53.049 28.6201C53.5128 28.1894 53.7605 27.6258 53.7605 26.9913H51.7605ZM51.6614 27.1802C51.6132 27.2285 51.5719 27.2513 51.4725 27.2513V29.2513C52.0825 29.2513 52.6386 29.0315 53.0757 28.5944L51.6614 27.1802ZM69.7476 27.8873L70.4547 27.1802L70.4547 27.1802L69.7476 27.8873ZM69.3836 16.0153H70.3836V15.0153H69.3836V16.0153ZM66.9476 15.7073L66.2104 16.3831L66.2398 16.4151L66.2719 16.4445L66.9476 15.7073ZM66.9476 14.1393L66.2719 13.4022L66.2558 13.4169L66.2405 13.4322L66.9476 14.1393ZM69.3836 13.8313V14.8313H70.3836V13.8313H69.3836ZM69.9716 9.46333L69.1006 8.97199L69.0963 8.97964L69.9716 9.46333ZM71.5396 7.89533L71.9868 8.78981L71.9969 8.78461L71.5396 7.89533ZM76.0196 7.95133L75.5724 8.84575L75.5724 8.84576L76.0196 7.95133ZM76.4676 8.37133L75.6101 8.88582L75.6412 8.9376L75.6782 8.98527L76.4676 8.37133ZM76.3556 9.68733L77.0627 10.3944L77.0781 10.3791L77.0927 10.3631L76.3556 9.68733ZM74.9836 9.91133L75.2261 8.94118L75.1675 8.92654L75.1076 8.91905L74.9836 9.91133ZM72.4916 10.3593L71.8207 9.61779L71.8116 9.62595L71.8028 9.63433L72.4916 10.3593ZM71.9316 13.8313H70.9316V14.8313H71.9316V13.8313ZM76.2156 14.1393L75.5085 14.8464L75.5085 14.8464L76.2156 14.1393ZM76.2156 15.7073L76.9227 16.4144L76.9381 16.3991L76.9527 16.3831L76.2156 15.7073ZM71.9316 16.0153V15.0153H70.9316V16.0153H71.9316ZM71.5396 27.8873L70.8591 27.1545L70.8456 27.1671L70.8325 27.1802L71.5396 27.8873ZM70.6436 27.2513C70.5442 27.2513 70.5029 27.2285 70.4547 27.1802L69.0405 28.5944C69.4776 29.0315 70.0336 29.2513 70.6436 29.2513V27.2513ZM70.4547 27.1802C70.4065 27.132 70.3836 27.0907 70.3836 26.9913H68.3836C68.3836 27.6013 68.6034 28.1573 69.0405 28.5944L70.4547 27.1802ZM70.3836 26.9913V16.0153H68.3836V26.9913H70.3836ZM69.3836 15.0153H67.7316V17.0153H69.3836V15.0153ZM67.7316 15.0153C67.6879 15.0153 67.6664 15.0097 67.6233 14.9702L66.2719 16.4445C66.6767 16.8156 67.1779 17.0153 67.7316 17.0153V15.0153ZM67.6847 15.0316C67.6452 14.9885 67.6396 14.967 67.6396 14.9233H65.6396C65.6396 15.477 65.8393 15.9782 66.2104 16.3831L67.6847 15.0316ZM67.6396 14.9233C67.6396 14.8736 67.6473 14.855 67.6473 14.855C67.6475 14.8544 67.6476 14.8543 67.6475 14.8545C67.6474 14.8547 67.6474 14.8548 67.6474 14.8547C67.6475 14.8545 67.648 14.8539 67.649 14.8526C67.65 14.8514 67.6518 14.8493 67.6547 14.8464L66.2405 13.4322C65.8293 13.8434 65.6396 14.3679 65.6396 14.9233H67.6396ZM67.6233 14.8765C67.6664 14.8369 67.6879 14.8313 67.7316 14.8313V12.8313C67.1779 12.8313 66.6767 13.031 66.2719 13.4022L67.6233 14.8765ZM67.7316 14.8313H69.3836V12.8313H67.7316V14.8313ZM70.3836 13.8313V12.2073H68.3836V13.8313H70.3836ZM70.3836 12.2073C70.3836 11.195 70.562 10.4625 70.8468 9.94701L69.0963 8.97964C68.5972 9.88287 68.3836 10.9796 68.3836 12.2073H70.3836ZM70.8426 9.95465C71.1731 9.36867 71.5603 9.00301 71.9868 8.78975L71.0924 7.0009C70.2496 7.42231 69.5914 8.10198 69.1006 8.97201L70.8426 9.95465ZM71.9969 8.78461C72.514 8.51868 73.0391 8.39133 73.5836 8.39133V6.39133C72.7094 6.39133 71.8718 6.59997 71.0822 7.00604L71.9969 8.78461ZM73.5836 8.39133C74.3138 8.39133 74.9717 8.5454 75.5724 8.84575L76.4668 7.0569C75.5742 6.61059 74.608 6.39133 73.5836 6.39133V8.39133ZM75.5724 8.84576C75.5814 8.85026 75.5915 8.85485 75.6101 8.88582L77.3251 7.85683C77.1197 7.51447 76.8311 7.23906 76.4668 7.0569L75.5724 8.84576ZM75.6782 8.98527C75.6821 8.99025 75.6765 8.98413 75.6707 8.96768C75.6681 8.96009 75.6661 8.95239 75.6649 8.94523C75.6638 8.93812 75.6636 8.93324 75.6636 8.93133H77.6636C77.6636 8.49502 77.5188 8.09401 77.2569 7.75739L75.6782 8.98527ZM75.6636 8.93133C75.6636 8.9458 75.6616 8.95033 75.6605 8.95303C75.6588 8.95706 75.6502 8.97693 75.6184 9.0116L77.0927 10.3631C77.4514 9.97173 77.6636 9.4838 77.6636 8.93133H75.6636ZM75.6485 8.98022C75.6374 8.99128 75.6304 8.9964 75.6281 8.99804C75.6258 8.99956 75.6266 8.99878 75.6299 8.99736C75.6333 8.99592 75.6364 8.99512 75.6378 8.99483C75.6392 8.99457 75.6362 8.99533 75.6276 8.99533V10.9953C76.1836 10.9953 76.6776 10.7795 77.0627 10.3944L75.6485 8.98022ZM75.6276 8.99533C75.5134 8.99533 75.3805 8.97977 75.2261 8.94118L74.741 10.8815C75.0347 10.9549 75.3311 10.9953 75.6276 10.9953V8.99533ZM75.1076 8.91905C74.882 8.89085 74.7017 8.86919 74.569 8.85444C74.4682 8.84324 74.3246 8.82733 74.2276 8.82733V10.8273C74.1896 10.8273 74.1726 10.8245 74.2158 10.8285C74.2448 10.8311 74.2882 10.8355 74.3481 10.8422C74.4674 10.8555 74.6372 10.8758 74.8595 10.9036L75.1076 8.91905ZM74.2276 8.82733C73.3239 8.82733 72.4642 9.03554 71.8207 9.61779L73.1625 11.1009C73.303 10.9738 73.6006 10.8273 74.2276 10.8273V8.82733ZM71.8028 9.63433C71.1199 10.2831 70.9316 11.2882 70.9316 12.2913H72.9316C72.9316 11.4278 73.1166 11.1449 73.1803 11.0843L71.8028 9.63433ZM70.9316 12.2913V13.8313H72.9316V12.2913H70.9316ZM71.9316 14.8313H75.4316V12.8313H71.9316V14.8313ZM75.4316 14.8313C75.4813 14.8313 75.4999 14.8391 75.4999 14.8391C75.5005 14.8393 75.5006 14.8394 75.5004 14.8393C75.5002 14.8392 75.5001 14.8391 75.5002 14.8392C75.5004 14.8393 75.501 14.8397 75.5023 14.8407C75.5035 14.8418 75.5056 14.8436 75.5085 14.8464L76.9227 13.4322C76.5115 13.021 75.987 12.8313 75.4316 12.8313V14.8313ZM75.5085 14.8464C75.5113 14.8493 75.5132 14.8514 75.5142 14.8526C75.5152 14.8539 75.5156 14.8545 75.5157 14.8547C75.5158 14.8548 75.5157 14.8547 75.5156 14.8545C75.5155 14.8543 75.5156 14.8544 75.5158 14.855C75.5158 14.855 75.5236 14.8736 75.5236 14.9233H77.5236C77.5236 14.3679 77.3339 13.8434 76.9227 13.4322L75.5085 14.8464ZM75.5236 14.9233C75.5236 14.967 75.518 14.9885 75.4784 15.0316L76.9527 16.3831C77.3239 15.9782 77.5236 15.477 77.5236 14.9233H75.5236ZM75.5085 15.0002C75.5056 15.0031 75.5035 15.0049 75.5023 15.0059C75.501 15.0069 75.5004 15.0074 75.5002 15.0075C75.5001 15.0075 75.5002 15.0075 75.5004 15.0074C75.5006 15.0073 75.5005 15.0074 75.4999 15.0076C75.4999 15.0076 75.4813 15.0153 75.4316 15.0153V17.0153C75.987 17.0153 76.5115 16.8256 76.9227 16.4144L75.5085 15.0002ZM75.4316 15.0153H71.9316V17.0153H75.4316V15.0153ZM70.9316 16.0153V26.9913H72.9316V16.0153H70.9316ZM70.9316 26.9913C70.9316 27.0662 70.918 27.0999 70.8591 27.1545L72.22 28.6201C72.6838 28.1894 72.9316 27.6258 72.9316 26.9913H70.9316ZM70.8325 27.1802C70.7842 27.2285 70.7429 27.2513 70.6436 27.2513V29.2513C71.2535 29.2513 71.8096 29.0315 72.2467 28.5944L70.8325 27.1802ZM80.9775 16.0153H81.9775V15.0153H80.9775V16.0153ZM78.5975 15.8753L77.8293 16.5155L77.8875 16.5854L77.9574 16.6435L78.5975 15.8753ZM78.7095 15.0073L79.3235 15.7967L79.3682 15.7619L79.4087 15.7223L78.7095 15.0073ZM82.5175 11.2833L83.2168 11.9983L83.2247 11.9904L82.5175 11.2833ZM83.3575 11.1993L82.5893 11.8395L82.6184 11.8744L82.6504 11.9064L83.3575 11.1993ZM83.5255 13.8313H82.5255V14.8313H83.5255V13.8313ZM87.4735 14.1393L86.7664 14.8464L86.7664 14.8464L87.4735 14.1393ZM87.4735 15.7073L88.1807 16.4144L88.196 16.3991L88.2107 16.3831L87.4735 15.7073ZM83.5255 16.0153V15.0153H82.5255V16.0153H83.5255ZM84.0295 25.8713L83.5081 26.7246L83.5354 26.7413L83.5638 26.7562L84.0295 25.8713ZM86.4655 25.9833L86.223 25.0132L86.2005 25.0188L86.1782 25.0255L86.4655 25.9833ZM86.6895 25.9273L86.4934 24.9467L86.4701 24.9514L86.447 24.9572L86.6895 25.9273ZM87.7255 26.2073L87.0184 26.9144L87.0353 26.9313L87.0529 26.9473L87.7255 26.2073ZM87.3895 27.8873L87.8086 28.7953L87.8306 28.7851L87.8521 28.7739L87.3895 27.8873ZM85.0655 27.3913C83.8335 27.3913 83.0962 27.1107 82.6702 26.7256C82.2634 26.3577 81.9775 25.7457 81.9775 24.6953H79.9775C79.9775 26.1089 80.3731 27.3449 81.3289 28.2091C82.2656 29.056 83.5723 29.3913 85.0655 29.3913V27.3913ZM81.9775 24.6953V16.0153H79.9775V24.6953H81.9775ZM80.9775 15.0153H78.9895V17.0153H80.9775V15.0153ZM78.9895 15.0153C79.0207 15.0153 79.0653 15.0205 79.1159 15.0386C79.1668 15.0568 79.2081 15.0824 79.2377 15.1071L77.9574 16.6435C78.2538 16.8906 78.6125 17.0153 78.9895 17.0153V15.0153ZM79.3658 15.2351C79.3905 15.2648 79.4161 15.3061 79.4343 15.357C79.4524 15.4076 79.4575 15.4521 79.4575 15.4833H77.4575C77.4575 15.8604 77.5823 16.2191 77.8293 16.5155L79.3658 15.2351ZM79.4575 15.4833C79.4575 15.5464 79.4417 15.6216 79.4043 15.6922C79.369 15.7589 79.3307 15.7911 79.3235 15.7967L78.0956 14.218C77.7228 14.508 77.4575 14.9421 77.4575 15.4833H79.4575ZM79.4087 15.7223L83.2167 11.9983L81.8184 10.5684L78.0104 14.2924L79.4087 15.7223ZM83.2247 11.9904C83.2595 11.9556 83.2624 11.9612 83.2304 11.9781C83.1946 11.9971 83.1119 12.0313 82.9935 12.0313V10.0313C82.4587 10.0313 82.0591 10.3276 81.8104 10.5762L83.2247 11.9904ZM82.9935 12.0313C82.9406 12.0313 82.8629 12.0207 82.7775 11.9813C82.6914 11.9416 82.629 11.8871 82.5893 11.8395L84.1258 10.5591C83.8372 10.2128 83.4313 10.0313 82.9935 10.0313V12.0313ZM82.6504 11.9064C82.6267 11.8827 82.5919 11.8395 82.5644 11.7752C82.5364 11.7099 82.5255 11.6451 82.5255 11.5913H84.5255C84.5255 11.1594 84.3516 10.7791 84.0647 10.4922L82.6504 11.9064ZM82.5255 11.5913V13.8313H84.5255V11.5913H82.5255ZM83.5255 14.8313H86.6895V12.8313H83.5255V14.8313ZM86.6895 14.8313C86.7393 14.8313 86.7579 14.8391 86.7579 14.8391C86.7584 14.8393 86.7585 14.8394 86.7584 14.8393C86.7582 14.8392 86.7581 14.8391 86.7582 14.8392C86.7583 14.8393 86.759 14.8397 86.7602 14.8407C86.7615 14.8418 86.7636 14.8436 86.7664 14.8464L88.1807 13.4322C87.7695 13.021 87.245 12.8313 86.6895 12.8313V14.8313ZM86.7664 14.8464C86.7693 14.8493 86.7711 14.8514 86.7721 14.8526C86.7732 14.8539 86.7736 14.8545 86.7737 14.8547C86.7738 14.8548 86.7737 14.8547 86.7736 14.8545C86.7735 14.8543 86.7736 14.8544 86.7738 14.855C86.7738 14.855 86.7815 14.8736 86.7815 14.9233H88.7815C88.7815 14.3679 88.5919 13.8434 88.1807 13.4322L86.7664 14.8464ZM86.7815 14.9233C86.7815 14.967 86.7759 14.9885 86.7364 15.0316L88.2107 16.3831C88.5818 15.9782 88.7815 15.477 88.7815 14.9233H86.7815ZM86.7664 15.0002C86.7636 15.0031 86.7615 15.0049 86.7602 15.0059C86.759 15.0069 86.7583 15.0074 86.7582 15.0075C86.7581 15.0075 86.7582 15.0075 86.7584 15.0074C86.7585 15.0073 86.7584 15.0074 86.7579 15.0076C86.7579 15.0076 86.7393 15.0153 86.6895 15.0153V17.0153C87.245 17.0153 87.7695 16.8256 88.1807 16.4144L86.7664 15.0002ZM86.6895 15.0153H83.5255V17.0153H86.6895V15.0153ZM82.5255 16.0153V24.4713H84.5255V16.0153H82.5255ZM82.5255 24.4713C82.5255 25.2585 82.6917 26.2257 83.5081 26.7246L84.551 25.018C84.6232 25.0622 84.6197 25.1045 84.5924 25.0286C84.5613 24.942 84.5255 24.7688 84.5255 24.4713H82.5255ZM83.5638 26.7562C84.0991 27.038 84.7083 27.1513 85.3455 27.1513V25.1513C84.9375 25.1513 84.6694 25.078 84.4953 24.9864L83.5638 26.7562ZM85.3455 27.1513C85.8204 27.1513 86.2905 27.0799 86.7529 26.9412L86.1782 25.0255C85.894 25.1108 85.6173 25.1513 85.3455 25.1513V27.1513ZM86.7081 26.9535C86.7828 26.9348 86.8574 26.9161 86.9321 26.8975L86.447 24.9572C86.3723 24.9759 86.2977 24.9945 86.223 25.0132L86.7081 26.9535ZM86.8857 26.9079C86.8956 26.9059 86.9383 26.8993 87.0255 26.8993V24.8993C86.8515 24.8993 86.6702 24.9114 86.4934 24.9467L86.8857 26.9079ZM87.0255 26.8993C87.025 26.8993 87.0204 26.8992 87.0131 26.8977C87.0057 26.8962 86.999 26.8939 86.9938 26.8916C86.9888 26.8894 86.988 26.8884 86.9917 26.891C86.9955 26.8937 87.0046 26.9006 87.0184 26.9144L88.4327 25.5002C88.0626 25.1302 87.5827 24.8993 87.0255 24.8993V26.8993ZM87.0529 26.9473C87.058 26.9519 87.0574 26.9522 87.0539 26.9474C87.0503 26.9425 87.0455 26.9348 87.0412 26.9251C87.037 26.9153 87.0347 26.9072 87.0337 26.9022C87.0328 26.8975 87.0335 26.8986 87.0335 26.9073H89.0335C89.0335 26.3485 88.8142 25.8455 88.3982 25.4674L87.0529 26.9473ZM87.0335 26.9073C87.0335 26.9308 87.0307 26.9391 87.0313 26.9369C87.0321 26.9341 87.0343 26.929 87.0368 26.9252C87.043 26.9158 87.0262 26.949 86.927 27.0007L87.8521 28.7739C88.1822 28.6017 88.4875 28.3595 88.7083 28.0235C88.9332 27.6811 89.0335 27.2972 89.0335 26.9073H87.0335ZM86.9705 26.9794C86.3771 27.2532 85.7458 27.3913 85.0655 27.3913V29.3913C86.028 29.3913 86.946 29.1934 87.8086 28.7953L86.9705 26.9794ZM92.593 27.8873L93.3001 27.1802L93.3001 27.1802L92.593 27.8873ZM92.593 7.92333L93.3001 8.63043L93.3132 8.61734L93.3258 8.60378L92.593 7.92333ZM94.413 7.89533L95.1201 7.18822L95.1201 7.18822L94.413 7.89533ZM94.385 27.8873L93.7045 27.1545L93.6909 27.1671L93.6778 27.1802L94.385 27.8873ZM93.489 27.2513C93.3896 27.2513 93.3483 27.2285 93.3001 27.1802L91.8858 28.5944C92.323 29.0315 92.879 29.2513 93.489 29.2513V27.2513ZM93.3001 27.1802C93.2518 27.132 93.229 27.0907 93.229 26.9913H91.229C91.229 27.6013 91.4487 28.1573 91.8858 28.5944L93.3001 27.1802ZM93.229 26.9913V8.81933H91.229V26.9913H93.229ZM93.229 8.81933C93.229 8.71996 93.2518 8.67867 93.3001 8.63043L91.8858 7.21622C91.4487 7.65332 91.229 8.20936 91.229 8.81933H93.229ZM93.3258 8.60378C93.3804 8.54493 93.4141 8.53133 93.489 8.53133V6.53133C92.8545 6.53133 92.2909 6.77906 91.8602 7.24288L93.3258 8.60378ZM93.489 8.53133C93.6228 8.53133 93.6681 8.56471 93.7059 8.60243L95.1201 7.18822C94.6724 6.74061 94.1018 6.53133 93.489 6.53133V8.53133ZM93.7058 8.60243C93.7436 8.64015 93.777 8.68553 93.777 8.81933H95.777C95.777 8.20646 95.5677 7.63583 95.1201 7.18822L93.7058 8.60243ZM93.777 8.81933V26.9913H95.777V8.81933H93.777ZM93.777 26.9913C93.777 27.0662 93.7634 27.0999 93.7045 27.1545L95.0654 28.6201C95.5292 28.1894 95.777 27.6258 95.777 26.9913H93.777ZM93.6778 27.1802C93.6296 27.2285 93.5883 27.2513 93.489 27.2513V29.2513C94.0989 29.2513 94.655 29.0315 95.0921 28.5944L93.6778 27.1802ZM101.946 27.8873L101.508 28.7866L101.518 28.7911L101.946 27.8873ZM100.294 26.4313L99.4469 26.9635L99.454 26.9746L100.294 26.4313ZM101.302 20.8873L100.704 20.0857L100.697 20.0906L101.302 20.8873ZM109.506 19.6553V20.6553H110.506V19.6553H109.506ZM108.582 16.7713L107.91 17.5123L107.916 17.5174L107.921 17.5225L108.582 16.7713ZM103.85 16.1273L103.653 15.1467L103.647 15.1481L103.85 16.1273ZM102.03 16.6313L102.272 17.6015L102.309 17.5922L102.346 17.58L102.03 16.6313ZM100.938 16.3793L101.645 15.6722L101.645 15.6722L100.938 16.3793ZM101.358 14.5593L101.747 15.4803L101.748 15.4801L101.358 14.5593ZM109.45 14.3353L108.938 15.1945L108.946 15.1991L109.45 14.3353ZM111.41 16.3793L110.511 16.8185L110.517 16.8306L110.523 16.8426L111.41 16.3793ZM111.662 27.8873L110.981 27.1545L110.968 27.1671L110.955 27.1802L111.662 27.8873ZM109.87 27.8873L110.577 27.1802L110.577 27.1802L109.87 27.8873ZM109.506 26.2633H110.506V23.8028L108.789 25.5657L109.506 26.2633ZM107.574 25.5633L108.029 26.4534L108.038 26.449L108.046 26.4445L107.574 25.5633ZM109.506 24.0513L110.258 24.7098L110.506 24.4271V24.0513H109.506ZM109.506 21.6993H110.506V20.6993H109.506V21.6993ZM102.898 25.5353L102.222 26.2725L102.229 26.2793L102.237 26.286L102.898 25.5353ZM104.242 27.3913C103.561 27.3913 102.943 27.2533 102.374 26.9836L101.518 28.7911C102.367 29.1934 103.279 29.3913 104.242 29.3913V27.3913ZM102.383 26.9881C101.854 26.7305 101.443 26.3671 101.133 25.8881L99.454 26.9746C99.9654 27.7649 100.656 28.3721 101.508 28.7866L102.383 26.9881ZM101.14 25.8992C100.839 25.4193 100.678 24.8603 100.678 24.1913H98.6776C98.6776 25.2023 98.9273 26.1367 99.447 26.9635L101.14 25.8992ZM100.678 24.1913C100.678 23.1168 101.077 22.3127 101.906 21.684L100.697 20.0906C99.3605 21.1047 98.6776 22.5032 98.6776 24.1913H100.678ZM101.899 21.689C102.758 21.0489 104.115 20.6553 106.118 20.6553V18.6553C103.901 18.6553 102.048 19.0831 100.704 20.0857L101.899 21.689ZM106.118 20.6553H109.506V18.6553H106.118V20.6553ZM110.506 19.6553V19.4313H108.506V19.6553H110.506ZM110.506 19.4313C110.506 18.0574 110.163 16.83 109.242 16.0202L107.921 17.5225C108.232 17.7953 108.506 18.3413 108.506 19.4313H110.506ZM109.253 16.0303C108.389 15.2472 107.149 14.9593 105.754 14.9593V16.9593C106.934 16.9593 107.58 17.2128 107.91 17.5123L109.253 16.0303ZM105.754 14.9593C104.994 14.9593 104.291 15.0192 103.653 15.1467L104.046 17.1079C104.528 17.0115 105.095 16.9593 105.754 16.9593V14.9593ZM103.647 15.1481C103.058 15.2699 102.413 15.4495 101.713 15.6826L102.346 17.58C102.99 17.3652 103.558 17.2088 104.052 17.1066L103.647 15.1481ZM101.787 15.6612C101.735 15.6742 101.698 15.6813 101.675 15.685C101.65 15.6888 101.648 15.6873 101.666 15.6873V17.6873C101.876 17.6873 102.088 17.6476 102.272 17.6015L101.787 15.6612ZM101.666 15.6873C101.657 15.6873 101.654 15.6866 101.655 15.6868C101.657 15.6871 101.66 15.6879 101.663 15.6894C101.667 15.6908 101.667 15.6916 101.665 15.69C101.663 15.6884 101.656 15.6833 101.645 15.6722L100.231 17.0864C100.616 17.4715 101.11 17.6873 101.666 17.6873V15.6873ZM101.645 15.6722C101.636 15.6639 101.633 15.6591 101.632 15.658C101.632 15.657 101.632 15.6576 101.633 15.659C101.633 15.6604 101.633 15.6596 101.632 15.6553C101.631 15.6508 101.63 15.6405 101.63 15.6233H99.6296C99.6296 16.1787 99.8317 16.6877 100.231 17.0864L101.645 15.6722ZM101.63 15.6233C101.63 15.5776 101.635 15.5535 101.637 15.5453C101.639 15.5383 101.64 15.5398 101.637 15.544C101.628 15.5571 101.641 15.5253 101.747 15.4803L100.968 13.6384C100.589 13.7987 100.238 14.0469 99.9863 14.4146C99.7326 14.7855 99.6296 15.2055 99.6296 15.6233H101.63ZM101.748 15.4801C103.217 14.8578 104.699 14.5513 106.202 14.5513V12.5513C104.418 12.5513 102.672 12.9169 100.968 13.6385L101.748 15.4801ZM106.202 14.5513C107.356 14.5513 108.251 14.7852 108.938 15.1944L109.961 13.4762C108.894 12.8401 107.623 12.5513 106.202 12.5513V14.5513ZM108.946 15.1991C109.691 15.6336 110.197 16.175 110.511 16.8185L112.308 15.9401C111.801 14.9036 111.001 14.0824 109.953 13.4715L108.946 15.1991ZM110.523 16.8426C110.874 17.5141 111.054 18.2501 111.054 19.0673H113.054C113.054 17.9432 112.803 16.8872 112.296 15.9161L110.523 16.8426ZM111.054 19.0673V26.9913H113.054V19.0673H111.054ZM111.054 26.9913C111.054 27.0662 111.04 27.0999 110.981 27.1545L112.342 28.6201C112.806 28.1894 113.054 27.6258 113.054 26.9913H111.054ZM110.955 27.1802C110.906 27.2285 110.865 27.2513 110.766 27.2513V29.2513C111.376 29.2513 111.932 29.0315 112.369 28.5944L110.955 27.1802ZM110.766 27.2513C110.666 27.2513 110.625 27.2285 110.577 27.1802L109.163 28.5944C109.6 29.0315 110.156 29.2513 110.766 29.2513V27.2513ZM110.577 27.1802C110.528 27.132 110.506 27.0907 110.506 26.9913H108.506C108.506 27.6013 108.725 28.1573 109.163 28.5944L110.577 27.1802ZM110.506 26.9913V26.2633H108.506V26.9913H110.506ZM108.789 25.5657C107.611 26.7756 106.122 27.3913 104.242 27.3913V29.3913C106.617 29.3913 108.637 28.5884 110.222 26.9609L108.789 25.5657ZM105.194 27.1513C106.181 27.1513 107.13 26.9141 108.029 26.4534L107.118 24.6733C106.487 24.9965 105.849 25.1513 105.194 25.1513V27.1513ZM108.046 26.4445C108.908 25.9824 109.649 25.4057 110.258 24.7098L108.753 23.3928C108.317 23.8916 107.77 24.323 107.101 24.6822L108.046 26.4445ZM110.506 24.0513V21.6993H108.506V24.0513H110.506ZM109.506 20.6993H106.454V22.6993H109.506V20.6993ZM106.454 20.6993C104.99 20.6993 103.738 20.8853 102.819 21.3663C102.345 21.6144 101.935 21.9539 101.646 22.4062C101.356 22.8627 101.226 23.3767 101.226 23.9113H103.226C103.226 23.7086 103.272 23.5774 103.333 23.4809C103.397 23.3803 103.516 23.2589 103.746 23.1384C104.236 22.882 105.099 22.6993 106.454 22.6993V20.6993ZM101.226 23.9113C101.226 24.8307 101.544 25.6512 102.222 26.2725L103.573 24.7982C103.355 24.5981 103.226 24.336 103.226 23.9113H101.226ZM102.237 26.286C102.978 26.938 104.045 27.1513 105.194 27.1513V25.1513C104.214 25.1513 103.751 24.954 103.558 24.7846L102.237 26.286ZM118.088 27.8873L118.795 27.1802L118.795 27.1802L118.088 27.8873ZM118.088 14.0833L118.795 14.7904L118.808 14.7773L118.821 14.7638L118.088 14.0833ZM119.88 14.0833L119.147 14.7638L119.173 14.7909L119.2 14.8161L119.88 14.0833ZM120.272 16.1273H119.272V18.7231L121.014 16.7982L120.272 16.1273ZM122.568 14.2513L123.062 15.1208L122.568 14.2513ZM128.14 14.2793L127.595 15.1178L127.605 15.1238L128.14 14.2793ZM129.876 16.2673L128.97 16.6902L128.974 16.6984L128.978 16.7065L129.876 16.2673ZM130.1 27.8873L129.42 27.1545L129.406 27.1671L129.393 27.1802L130.1 27.8873ZM128.308 27.8873L127.601 28.5944L127.601 28.5944L128.308 27.8873ZM122.344 16.6313L121.799 15.7928L121.79 15.7993L122.344 16.6313ZM120.272 18.5913L119.49 17.9688L119.272 18.2421V18.5913H120.272ZM119.88 27.8873L119.2 27.1545L119.186 27.1671L119.173 27.1802L119.88 27.8873ZM118.984 27.2513C118.885 27.2513 118.844 27.2285 118.795 27.1802L117.381 28.5944C117.818 29.0315 118.374 29.2513 118.984 29.2513V27.2513ZM118.795 27.1802C118.747 27.132 118.724 27.0907 118.724 26.9913H116.724C116.724 27.6013 116.944 28.1573 117.381 28.5944L118.795 27.1802ZM118.724 26.9913V14.9793H116.724V26.9913H118.724ZM118.724 14.9793C118.724 14.88 118.747 14.8387 118.795 14.7904L117.381 13.3762C116.944 13.8133 116.724 14.3694 116.724 14.9793H118.724ZM118.821 14.7638C118.876 14.7049 118.909 14.6913 118.984 14.6913V12.6913C118.35 12.6913 117.786 12.9391 117.355 13.4029L118.821 14.7638ZM118.984 14.6913C119.059 14.6913 119.093 14.7049 119.147 14.7638L120.613 13.4029C120.182 12.9391 119.619 12.6913 118.984 12.6913V14.6913ZM119.2 14.8161C119.259 14.8708 119.272 14.9045 119.272 14.9793H121.272C121.272 14.3448 121.025 13.7812 120.561 13.3505L119.2 14.8161ZM119.272 14.9793V16.1273H121.272V14.9793H119.272ZM121.014 16.7982C121.66 16.0839 122.344 15.529 123.062 15.1208L122.074 13.3819C121.15 13.907 120.303 14.6028 119.531 15.4564L121.014 16.7982ZM123.062 15.1208C123.707 14.7543 124.501 14.5513 125.48 14.5513V12.5513C124.219 12.5513 123.072 12.815 122.074 13.3819L123.062 15.1208ZM125.48 14.5513C126.344 14.5513 127.034 14.7533 127.595 15.1178L128.685 13.4409C127.753 12.8347 126.67 12.5513 125.48 12.5513V14.5513ZM127.605 15.1238C128.205 15.5045 128.657 16.0191 128.97 16.6902L130.782 15.8444C130.312 14.8356 129.606 14.0249 128.676 13.4348L127.605 15.1238ZM128.978 16.7065C129.317 17.3993 129.492 18.1714 129.492 19.0393H131.492C131.492 17.8912 131.257 16.8154 130.775 15.8281L128.978 16.7065ZM129.492 19.0393V26.9913H131.492V19.0393H129.492ZM129.492 26.9913C129.492 27.0662 129.479 27.0999 129.42 27.1545L130.781 28.6201C131.245 28.1894 131.492 27.6258 131.492 26.9913H129.492ZM129.393 27.1802C129.345 27.2285 129.304 27.2513 129.204 27.2513V29.2513C129.814 29.2513 130.37 29.0315 130.807 28.5944L129.393 27.1802ZM129.204 27.2513C129.105 27.2513 129.064 27.2285 129.015 27.1802L127.601 28.5944C128.038 29.0315 128.594 29.2513 129.204 29.2513V27.2513ZM129.015 27.1802C128.967 27.132 128.944 27.0907 128.944 26.9913H126.944C126.944 27.6013 127.164 28.1573 127.601 28.5944L129.015 27.1802ZM128.944 26.9913V19.3193H126.944V26.9913H128.944ZM128.944 19.3193C128.944 18.0506 128.661 16.9124 127.917 16.0877C127.156 15.2433 126.073 14.9033 124.864 14.9033V16.9033C125.709 16.9033 126.166 17.1327 126.432 17.427C126.715 17.7409 126.944 18.3107 126.944 19.3193H128.944ZM124.864 14.9033C123.747 14.9033 122.716 15.1969 121.799 15.7929L122.889 17.4698C123.466 17.0951 124.115 16.9033 124.864 16.9033V14.9033ZM121.79 15.7993C120.96 16.3524 120.195 17.0819 119.49 17.9688L121.055 19.2139C121.656 18.4581 122.273 17.881 122.899 17.4634L121.79 15.7993ZM119.272 18.5913V26.9913H121.272V18.5913H119.272ZM119.272 26.9913C119.272 27.0662 119.259 27.0999 119.2 27.1545L120.561 28.6201C121.025 28.1894 121.272 27.6258 121.272 26.9913H119.272ZM119.173 27.1802C119.125 27.2285 119.084 27.2513 118.984 27.2513V29.2513C119.594 29.2513 120.15 29.0315 120.587 28.5944L119.173 27.1802ZM138.791 27.5233L138.288 28.3877L138.297 28.393L138.306 28.3982L138.791 27.5233ZM136.271 24.9473L135.397 25.4342L135.402 25.4427L135.407 25.4512L136.271 24.9473ZM136.271 17.0233L135.403 16.5257L135.401 16.5303L136.271 17.0233ZM138.791 14.4473L139.282 15.3185L139.287 15.3156L138.791 14.4473ZM146.883 15.6793L146.162 16.3721L147.883 18.164V15.6793H146.883ZM147.247 7.89533L146.566 7.16253L146.553 7.17513L146.54 7.18822L147.247 7.89533ZM149.067 7.92333L148.334 8.60378L148.347 8.61734L148.36 8.63043L149.067 7.92333ZM149.067 27.8873L149.774 28.5944L149.067 27.8873ZM147.247 27.8873L146.54 28.5944L146.553 28.6075L146.566 28.6201L147.247 27.8873ZM146.883 26.2633H147.883V23.7787L146.162 25.5706L146.883 26.2633ZM144.867 25.4513L145.314 26.3458L145.323 26.3414L144.867 25.4513ZM146.883 23.9113L147.622 24.5851L147.883 24.2988V23.9113H146.883ZM146.883 18.0313H147.883V17.6439L147.622 17.3576L146.883 18.0313ZM144.867 16.5193L144.402 17.4047L144.415 17.4116L144.428 17.4181L144.867 16.5193ZM139.127 17.2473L139.849 17.9389L139.849 17.9389L139.127 17.2473ZM142.095 27.3913C141.112 27.3913 140.177 27.1478 139.275 26.6484L138.306 28.3982C139.495 29.0562 140.762 29.3913 142.095 29.3913V27.3913ZM139.294 26.659C138.43 26.1564 137.709 25.4282 137.135 24.4435L135.407 25.4512C136.139 26.7065 137.098 27.6956 138.288 28.3877L139.294 26.659ZM137.144 24.4605C136.605 23.4929 136.319 22.3404 136.319 20.9713H134.319C134.319 22.6263 134.667 24.1244 135.397 25.4342L137.144 24.4605ZM136.319 20.9713C136.319 19.6018 136.605 18.4616 137.141 17.5163L135.401 16.5303C134.667 17.825 134.319 19.3169 134.319 20.9713H136.319ZM137.138 17.521C137.712 16.5202 138.429 15.799 139.282 15.3185L138.3 13.5762C137.099 14.253 136.136 15.2492 135.403 16.5257L137.138 17.521ZM139.287 15.3156C140.187 14.801 141.119 14.5513 142.095 14.5513V12.5513C140.756 12.5513 139.485 12.899 138.295 13.5791L139.287 15.3156ZM142.095 14.5513C143.63 14.5513 144.972 15.1332 146.162 16.3721L147.604 14.9866C146.069 13.3881 144.218 12.5513 142.095 12.5513V14.5513ZM147.883 15.6793V8.81933H145.883V15.6793H147.883ZM147.883 8.81933C147.883 8.68553 147.916 8.64015 147.954 8.60243L146.54 7.18822C146.092 7.63583 145.883 8.20646 145.883 8.81933H147.883ZM147.927 8.62812C148.005 8.55615 148.07 8.53133 148.171 8.53133V6.53133C147.562 6.53133 147.011 6.74917 146.566 7.16253L147.927 8.62812ZM148.171 8.53133C148.246 8.53133 148.279 8.54493 148.334 8.60378L149.8 7.24288C149.369 6.77906 148.805 6.53133 148.171 6.53133V8.53133ZM148.36 8.63043C148.408 8.67867 148.431 8.71996 148.431 8.81933H150.431C150.431 8.20936 150.211 7.65332 149.774 7.21622L148.36 8.63043ZM148.431 8.81933V26.9913H150.431V8.81933H148.431ZM148.431 26.9913C148.431 27.0907 148.408 27.132 148.36 27.1802L149.774 28.5944C150.211 28.1573 150.431 27.6013 150.431 26.9913H148.431ZM148.36 27.1802C148.311 27.2285 148.27 27.2513 148.171 27.2513V29.2513C148.781 29.2513 149.337 29.0315 149.774 28.5944L148.36 27.1802ZM148.171 27.2513C148.07 27.2513 148.005 27.2265 147.927 27.1545L146.566 28.6201C147.011 29.0335 147.562 29.2513 148.171 29.2513V27.2513ZM147.954 27.1802C147.906 27.132 147.883 27.0907 147.883 26.9913H145.883C145.883 27.6013 146.103 28.1573 146.54 28.5944L147.954 27.1802ZM147.883 26.9913V26.2633H145.883V26.9913H147.883ZM146.162 25.5706C144.972 26.8094 143.63 27.3913 142.095 27.3913V29.3913C144.218 29.3913 146.069 28.5546 147.604 26.9561L146.162 25.5706ZM142.459 27.0113C143.468 27.0113 144.424 26.7905 145.314 26.3458L144.42 24.5569C143.816 24.8588 143.167 25.0113 142.459 25.0113V27.0113ZM145.323 26.3414C146.194 25.8949 146.962 25.3083 147.622 24.5851L146.144 23.2376C145.646 23.7837 145.07 24.2238 144.411 24.5613L145.323 26.3414ZM147.883 23.9113V18.0313H145.883V23.9113H147.883ZM147.622 17.3576C146.959 16.6304 146.185 16.0497 145.305 15.6206L144.428 17.4181C145.079 17.7356 145.649 18.1629 146.144 18.7051L147.622 17.3576ZM145.332 15.6339C144.439 15.1652 143.476 14.9313 142.459 14.9313V16.9313C143.159 16.9313 143.801 17.0894 144.402 17.4047L145.332 15.6339ZM142.459 14.9313C140.846 14.9313 139.46 15.4536 138.404 16.5558L139.849 17.9389C140.474 17.2864 141.309 16.9313 142.459 16.9313V14.9313ZM138.404 16.5558C137.335 17.6729 136.867 19.1936 136.867 20.9713H138.867C138.867 19.5384 139.239 18.5764 139.849 17.9389L138.404 16.5558ZM136.867 20.9713C136.867 22.749 137.335 24.2698 138.404 25.3869L139.849 24.0038C139.239 23.3662 138.867 22.4043 138.867 20.9713H136.867ZM138.404 25.3869C139.46 26.489 140.846 27.0113 142.459 27.0113V25.0113C141.309 25.0113 140.474 24.6563 139.849 24.0038L138.404 25.3869ZM155.447 10.4993L154.74 11.2064L154.74 11.2064L155.447 10.4993ZM157.631 10.4993L158.338 11.2064L158.338 11.2064L157.631 10.4993ZM155.615 27.8873L156.322 27.1802L156.322 27.1802L155.615 27.8873ZM155.615 14.0833L156.322 14.7904L156.335 14.7773L156.348 14.7638L155.615 14.0833ZM157.435 14.0553L158.142 13.3482L157.435 14.0553ZM157.407 27.8873L156.726 27.1545L156.713 27.1671L156.7 27.1802L157.407 27.8873ZM156.455 9.91933C156.331 9.91933 156.249 9.88682 156.154 9.79222L154.74 11.2064C155.205 11.6718 155.795 11.9193 156.455 11.9193V9.91933ZM156.154 9.79222C156.059 9.69762 156.027 9.6151 156.027 9.49133H154.027C154.027 10.1516 154.274 10.741 154.74 11.2064L156.154 9.79222ZM156.027 9.49133V9.37933H154.027V9.49133H156.027ZM156.027 9.37933C156.027 9.25555 156.059 9.17304 156.154 9.07843L154.74 7.66422C154.274 8.12962 154.027 8.7191 154.027 9.37933H156.027ZM156.154 9.07843C156.249 8.98383 156.331 8.95133 156.455 8.95133V6.95133C155.795 6.95133 155.205 7.19882 154.74 7.66422L156.154 9.07843ZM156.455 8.95133H156.623V6.95133H156.455V8.95133ZM156.623 8.95133C156.747 8.95133 156.829 8.98383 156.924 9.07843L158.338 7.66422C157.873 7.19882 157.283 6.95133 156.623 6.95133V8.95133ZM156.924 9.07843C157.018 9.17304 157.051 9.25555 157.051 9.37933H159.051C159.051 8.7191 158.803 8.12962 158.338 7.66422L156.924 9.07843ZM157.051 9.37933V9.49133H159.051V9.37933H157.051ZM157.051 9.49133C157.051 9.6151 157.018 9.69762 156.924 9.79222L158.338 11.2064C158.803 10.741 159.051 10.1516 159.051 9.49133H157.051ZM156.924 9.79222C156.829 9.88682 156.747 9.91933 156.623 9.91933V11.9193C157.283 11.9193 157.873 11.6718 158.338 11.2064L156.924 9.79222ZM156.623 9.91933H156.455V11.9193H156.623V9.91933ZM156.511 27.2513C156.411 27.2513 156.37 27.2285 156.322 27.1802L154.908 28.5944C155.345 29.0315 155.901 29.2513 156.511 29.2513V27.2513ZM156.322 27.1802C156.274 27.132 156.251 27.0907 156.251 26.9913H154.251C154.251 27.6013 154.471 28.1573 154.908 28.5944L156.322 27.1802ZM156.251 26.9913V14.9793H154.251V26.9913H156.251ZM156.251 14.9793C156.251 14.88 156.274 14.8387 156.322 14.7904L154.908 13.3762C154.471 13.8133 154.251 14.3694 154.251 14.9793H156.251ZM156.348 14.7638C156.402 14.7049 156.436 14.6913 156.511 14.6913V12.6913C155.876 12.6913 155.313 12.9391 154.882 13.4029L156.348 14.7638ZM156.511 14.6913C156.645 14.6913 156.69 14.7247 156.728 14.7624L158.142 13.3482C157.694 12.9006 157.124 12.6913 156.511 12.6913V14.6913ZM156.728 14.7624C156.765 14.8002 156.799 14.8455 156.799 14.9793H158.799C158.799 14.3665 158.59 13.7958 158.142 13.3482L156.728 14.7624ZM156.799 14.9793V26.9913H158.799V14.9793H156.799ZM156.799 26.9913C156.799 27.0662 156.785 27.0999 156.726 27.1545L158.087 28.6201C158.551 28.1894 158.799 27.6258 158.799 26.9913H156.799ZM156.7 27.1802C156.651 27.2285 156.61 27.2513 156.511 27.2513V29.2513C157.121 29.2513 157.677 29.0315 158.114 28.5944L156.7 27.1802ZM163.987 27.8873L164.695 27.1802L164.695 27.1802L163.987 27.8873ZM163.987 14.0833L164.695 14.7904L164.708 14.7773L164.72 14.7638L163.987 14.0833ZM165.779 14.0833L165.047 14.7638L165.072 14.7909L165.099 14.8161L165.779 14.0833ZM166.171 16.1273H165.171V18.7231L166.913 16.7982L166.171 16.1273ZM168.467 14.2513L168.961 15.1208L168.467 14.2513ZM174.039 14.2793L173.494 15.1178L173.504 15.1238L174.039 14.2793ZM175.775 16.2673L174.869 16.6902L174.873 16.6984L174.877 16.7065L175.775 16.2673ZM175.999 27.8873L175.319 27.1545L175.305 27.1671L175.292 27.1802L175.999 27.8873ZM174.207 27.8873L173.5 28.5944L173.5 28.5944L174.207 27.8873ZM168.243 16.6313L167.698 15.7928L167.689 15.7993L168.243 16.6313ZM166.171 18.5913L165.389 17.9688L165.171 18.2421V18.5913H166.171ZM165.779 27.8873L165.099 27.1545L165.085 27.1671L165.072 27.1802L165.779 27.8873ZM164.883 27.2513C164.784 27.2513 164.743 27.2285 164.695 27.1802L163.28 28.5944C163.717 29.0315 164.274 29.2513 164.883 29.2513V27.2513ZM164.695 27.1802C164.646 27.132 164.623 27.0907 164.623 26.9913H162.623C162.623 27.6013 162.843 28.1573 163.28 28.5944L164.695 27.1802ZM164.623 26.9913V14.9793H162.623V26.9913H164.623ZM164.623 14.9793C164.623 14.88 164.646 14.8387 164.695 14.7904L163.28 13.3762C162.843 13.8133 162.623 14.3694 162.623 14.9793H164.623ZM164.72 14.7638C164.775 14.7049 164.809 14.6913 164.883 14.6913V12.6913C164.249 12.6913 163.685 12.9391 163.255 13.4029L164.72 14.7638ZM164.883 14.6913C164.958 14.6913 164.992 14.7049 165.047 14.7638L166.512 13.4029C166.082 12.9391 165.518 12.6913 164.883 12.6913V14.6913ZM165.099 14.8161C165.158 14.8708 165.171 14.9045 165.171 14.9793H167.171C167.171 14.3448 166.924 13.7812 166.46 13.3505L165.099 14.8161ZM165.171 14.9793V16.1273H167.171V14.9793H165.171ZM166.913 16.7982C167.559 16.0839 168.243 15.529 168.961 15.1208L167.973 13.3819C167.049 13.907 166.202 14.6028 165.43 15.4564L166.913 16.7982ZM168.961 15.1208C169.606 14.7543 170.4 14.5513 171.379 14.5513V12.5513C170.119 12.5513 168.971 12.815 167.973 13.3819L168.961 15.1208ZM171.379 14.5513C172.243 14.5513 172.934 14.7533 173.494 15.1178L174.584 13.4409C173.652 12.8347 172.569 12.5513 171.379 12.5513V14.5513ZM173.504 15.1238C174.104 15.5045 174.556 16.0191 174.869 16.6902L176.682 15.8444C176.211 14.8356 175.505 14.0249 174.575 13.4348L173.504 15.1238ZM174.877 16.7065C175.216 17.3993 175.391 18.1714 175.391 19.0393H177.391C177.391 17.8912 177.157 16.8154 176.674 15.8281L174.877 16.7065ZM175.391 19.0393V26.9913H177.391V19.0393H175.391ZM175.391 26.9913C175.391 27.0662 175.378 27.0999 175.319 27.1545L176.68 28.6201C177.144 28.1894 177.391 27.6258 177.391 26.9913H175.391ZM175.292 27.1802C175.244 27.2285 175.203 27.2513 175.103 27.2513V29.2513C175.713 29.2513 176.269 29.0315 176.707 28.5944L175.292 27.1802ZM175.103 27.2513C175.004 27.2513 174.963 27.2285 174.915 27.1802L173.5 28.5944C173.937 29.0315 174.494 29.2513 175.103 29.2513V27.2513ZM174.915 27.1802C174.866 27.132 174.843 27.0907 174.843 26.9913H172.843C172.843 27.6013 173.063 28.1573 173.5 28.5944L174.915 27.1802ZM174.843 26.9913V19.3193H172.843V26.9913H174.843ZM174.843 19.3193C174.843 18.0506 174.56 16.9124 173.816 16.0877C173.055 15.2433 171.973 14.9033 170.763 14.9033V16.9033C171.608 16.9033 172.065 17.1327 172.331 17.427C172.614 17.7409 172.843 18.3107 172.843 19.3193H174.843ZM170.763 14.9033C169.646 14.9033 168.615 15.1969 167.698 15.7929L168.788 17.4698C169.365 17.0951 170.014 16.9033 170.763 16.9033V14.9033ZM167.689 15.7993C166.859 16.3524 166.094 17.0819 165.389 17.9688L166.954 19.2139C167.555 18.4581 168.172 17.881 168.798 17.4634L167.689 15.7993ZM165.171 18.5913V26.9913H167.171V18.5913H165.171ZM165.171 26.9913C165.171 27.0662 165.158 27.0999 165.099 27.1545L166.46 28.6201C166.924 28.1894 167.171 27.6258 167.171 26.9913H165.171ZM165.072 27.1802C165.024 27.2285 164.983 27.2513 164.883 27.2513V29.2513C165.493 29.2513 166.049 29.0315 166.487 28.5944L165.072 27.1802ZM182.758 33.3753L182.237 34.2286L182.247 34.2348L182.257 34.2408L182.758 33.3753ZM182.562 31.5833L181.855 30.8762L181.825 30.9056L181.799 30.9374L182.562 31.5833ZM183.878 31.3593L184.325 30.4649L184.288 30.4463L184.249 30.4309L183.878 31.3593ZM192.782 25.9833H193.782V23.448L192.051 25.3007L192.782 25.9833ZM184.774 27.2993L184.295 28.1772L184.305 28.1824L184.314 28.1873L184.774 27.2993ZM182.226 24.8353L181.372 25.3562L181.376 25.3627L182.226 24.8353ZM182.226 16.8553L183.076 17.3827L183.08 17.3762L182.226 16.8553ZM184.774 14.3913L185.24 15.2759L185.246 15.2728L184.774 14.3913ZM192.782 15.6793L192.051 16.362L193.782 18.2146V15.6793H192.782ZM193.146 14.0833L193.853 14.7904L193.866 14.7773L193.879 14.7638L193.146 14.0833ZM194.938 14.0833L194.205 14.7638L194.23 14.7909L194.258 14.8161L194.938 14.0833ZM193.622 32.9273L194.366 33.5951L193.622 32.9273ZM190.85 25.2273L190.364 24.3532L190.364 24.3532L190.85 25.2273ZM192.782 23.7153L193.5 24.4118L193.782 24.1208V23.7153H192.782ZM192.782 17.9473H193.782V17.5418L193.5 17.2509L192.782 17.9473ZM190.85 16.4353L191.336 15.5612L191.336 15.5612L190.85 16.4353ZM185.082 17.1633L185.774 17.8856L185.774 17.8853L185.082 17.1633ZM185.082 24.5273L184.383 25.242L184.39 25.2495L184.398 25.2569L185.082 24.5273ZM188.75 33.8313C187.754 33.8313 186.745 33.7027 185.72 33.4422L185.228 35.3805C186.405 35.68 187.58 35.8313 188.75 35.8313V33.8313ZM185.72 33.4422C184.677 33.1768 183.865 32.8605 183.259 32.5099L182.257 34.2408C183.07 34.7115 184.069 35.0859 185.228 35.3805L185.72 33.4422ZM183.279 32.522C183.265 32.5132 183.262 32.5088 183.263 32.5108C183.266 32.5132 183.268 32.5167 183.269 32.519C183.272 32.5249 183.254 32.4947 183.254 32.3953H181.254C181.254 33.1347 181.558 33.8138 182.237 34.2286L183.279 32.522ZM183.254 32.3953C183.254 32.3491 183.262 32.3039 183.325 32.2293L181.799 30.9374C181.451 31.348 181.254 31.8442 181.254 32.3953H183.254ZM183.269 32.2904C183.296 32.2637 183.311 32.2571 183.315 32.2553C183.32 32.2536 183.336 32.2473 183.374 32.2473V30.2473C182.792 30.2473 182.267 30.4643 181.855 30.8762L183.269 32.2904ZM183.374 32.2473C183.36 32.2473 183.4 32.245 183.507 32.2878L184.249 30.4309C183.983 30.3243 183.686 30.2473 183.374 30.2473V32.2473ZM183.431 32.2538C184.995 33.0358 186.689 33.4233 188.498 33.4233V31.4233C186.984 31.4233 185.598 31.1015 184.325 30.4649L183.431 32.2538ZM188.498 33.4233C190.097 33.4233 191.475 32.9945 192.44 31.9667C193.394 30.9509 193.782 29.5196 193.782 27.8593H191.782C191.782 29.2417 191.456 30.0924 190.982 30.5979C190.519 31.0915 189.755 31.4233 188.498 31.4233V33.4233ZM193.782 27.8593V25.9833H191.782V27.8593H193.782ZM192.051 25.3007C190.906 26.5261 189.571 27.1113 187.994 27.1113V29.1113C190.15 29.1113 192.007 28.2779 193.513 26.666L192.051 25.3007ZM187.994 27.1113C187.064 27.1113 186.147 26.8843 185.234 26.4113L184.314 28.1873C185.492 28.797 186.722 29.1113 187.994 29.1113V27.1113ZM185.253 26.4214C184.391 25.9516 183.665 25.2572 183.076 24.308L181.376 25.3627C182.131 26.5788 183.103 27.5271 184.295 28.1772L185.253 26.4214ZM183.08 24.3145C182.522 23.4007 182.218 22.2552 182.218 20.8313H180.218C180.218 22.5434 180.586 24.0673 181.372 25.3562L183.08 24.3145ZM182.218 20.8313C182.218 19.4067 182.522 18.2741 183.076 17.3827L181.376 16.328C180.586 17.6019 180.218 19.1199 180.218 20.8313H182.218ZM183.08 17.3762C183.668 16.4111 184.391 15.724 185.24 15.2759L184.308 13.5068C183.104 14.1413 182.128 15.0968 181.372 16.3345L183.08 17.3762ZM185.246 15.2728C186.158 14.7845 187.07 14.5513 187.994 14.5513V12.5513C186.715 12.5513 185.481 12.8782 184.302 13.5098L185.246 15.2728ZM187.994 14.5513C189.571 14.5513 190.906 15.1366 192.051 16.362L193.513 14.9967C192.007 13.3847 190.15 12.5513 187.994 12.5513V14.5513ZM193.782 15.6793V14.9793H191.782V15.6793H193.782ZM193.782 14.9793C193.782 14.88 193.805 14.8387 193.853 14.7904L192.439 13.3762C192.002 13.8133 191.782 14.3694 191.782 14.9793H193.782ZM193.879 14.7638C193.933 14.7049 193.967 14.6913 194.042 14.6913V12.6913C193.408 12.6913 192.844 12.9391 192.413 13.4029L193.879 14.7638ZM194.042 14.6913C194.117 14.6913 194.151 14.7049 194.205 14.7638L195.671 13.4029C195.24 12.9391 194.676 12.6913 194.042 12.6913V14.6913ZM194.258 14.8161C194.316 14.8708 194.33 14.9045 194.33 14.9793H196.33C196.33 14.3448 196.082 13.7812 195.618 13.3505L194.258 14.8161ZM194.33 14.9793V27.4953H196.33V14.9793H194.33ZM194.33 27.4953C194.33 29.6947 193.798 31.2333 192.878 32.2596L194.366 33.5951C195.723 32.0827 196.33 29.9999 196.33 27.4953H194.33ZM192.878 32.2596C191.972 33.2688 190.648 33.8313 188.75 33.8313V35.8313C191.071 35.8313 192.994 35.1245 194.366 33.5951L192.878 32.2596ZM188.526 26.7873C189.549 26.7873 190.495 26.5684 191.336 26.1015L190.364 24.3532C189.861 24.6329 189.258 24.7873 188.526 24.7873V26.7873ZM191.336 26.1015C192.105 25.6741 192.825 25.1064 193.5 24.4118L192.064 23.0189C191.507 23.5936 190.939 24.0339 190.364 24.3532L191.336 26.1015ZM193.782 23.7153V17.9473H191.782V23.7153H193.782ZM193.5 17.2509C192.825 16.5563 192.105 15.9886 191.336 15.5612L190.364 17.3095C190.939 17.6287 191.507 18.0691 192.064 18.6438L193.5 17.2509ZM191.336 15.5612C190.495 15.0942 189.549 14.8753 188.526 14.8753V16.8753C189.258 16.8753 189.861 17.0297 190.364 17.3095L191.336 15.5612ZM188.526 14.8753C186.904 14.8753 185.497 15.3809 184.39 16.4413L185.774 17.8853C186.459 17.2284 187.348 16.8753 188.526 16.8753V14.8753ZM184.39 16.441C183.259 17.5248 182.766 19.0448 182.766 20.8313H184.766C184.766 19.4072 185.151 18.4819 185.774 17.8856L184.39 16.441ZM182.766 20.8313C182.766 22.6192 183.259 24.1423 184.383 25.242L185.781 23.8127C185.15 23.195 184.766 22.2541 184.766 20.8313H182.766ZM184.398 25.2569C185.506 26.2951 186.91 26.7873 188.526 26.7873V24.7873C187.342 24.7873 186.45 24.4395 185.766 23.7978L184.398 25.2569Z" fill="#111111"/>
<path d="M4398.76 29.167V14.6215H4407.48V16.184H4400.52V21.0988H4406.83V22.6613H4400.52V29.167H4398.76ZM4414.04 29.3943C4412.99 29.3943 4412.09 29.1623 4411.32 28.6982C4410.57 28.2295 4409.98 27.5761 4409.57 26.738C4409.16 25.8952 4408.96 24.9151 4408.96 23.7977C4408.96 22.6802 4409.16 21.6954 4409.57 20.8431C4409.98 19.9861 4410.55 19.3185 4411.29 18.8403C4412.03 18.3573 4412.89 18.1159 4413.87 18.1159C4414.44 18.1159 4415 18.2106 4415.56 18.3999C4416.11 18.5893 4416.62 18.8971 4417.07 19.3232C4417.52 19.7446 4417.89 20.3034 4418.16 20.9994C4418.43 21.6954 4418.56 22.5524 4418.56 23.5704V24.2806H4410.15V22.8318H4416.86C4416.86 22.2162 4416.73 21.667 4416.49 21.184C4416.25 20.7011 4415.9 20.3199 4415.45 20.0406C4415.01 19.7612 4414.48 19.6215 4413.87 19.6215C4413.21 19.6215 4412.63 19.7873 4412.14 20.1187C4411.66 20.4454 4411.29 20.8715 4411.03 21.3971C4410.77 21.9227 4410.64 22.4861 4410.64 23.0874V24.0534C4410.64 24.8772 4410.78 25.5756 4411.06 26.1485C4411.35 26.7167 4411.75 27.1499 4412.26 27.4482C4412.77 27.7418 4413.37 27.8886 4414.04 27.8886C4414.48 27.8886 4414.88 27.827 4415.24 27.7039C4415.6 27.5761 4415.91 27.3867 4416.17 27.1357C4416.43 26.8801 4416.63 26.5628 4416.77 26.184L4418.39 26.6386C4418.22 27.1878 4417.93 27.6708 4417.53 28.0874C4417.13 28.4994 4416.63 28.8213 4416.04 29.0534C4415.45 29.2806 4414.78 29.3943 4414.04 29.3943ZM4424.32 29.4227C4423.63 29.4227 4423 29.2925 4422.44 29.032C4421.88 28.7669 4421.43 28.3857 4421.1 27.8886C4420.77 27.3867 4420.6 26.7806 4420.6 26.0704C4420.6 25.4454 4420.72 24.9388 4420.97 24.5505C4421.22 24.1575 4421.54 23.8498 4421.96 23.6272C4422.37 23.4047 4422.82 23.239 4423.32 23.1301C4423.82 23.0164 4424.33 22.9265 4424.83 22.8602C4425.5 22.7749 4426.03 22.711 4426.45 22.6684C4426.86 22.6211 4427.16 22.5429 4427.35 22.434C4427.55 22.3251 4427.65 22.1357 4427.65 21.8659V21.809C4427.65 21.1083 4427.45 20.5638 4427.07 20.1755C4426.69 19.7873 4426.12 19.5931 4425.34 19.5931C4424.54 19.5931 4423.92 19.7683 4423.46 20.1187C4423.01 20.4691 4422.69 20.8431 4422.5 21.2409L4420.91 20.6727C4421.2 20.0098 4421.58 19.4937 4422.05 19.1244C4422.53 18.7503 4423.05 18.4899 4423.61 18.3431C4424.18 18.1916 4424.74 18.1159 4425.29 18.1159C4425.64 18.1159 4426.04 18.1585 4426.49 18.2437C4426.95 18.3242 4427.4 18.4923 4427.82 18.748C4428.25 19.0036 4428.61 19.3895 4428.9 19.9056C4429.18 20.4217 4429.32 21.113 4429.32 21.9795V29.167H4427.65V27.6897H4427.56C4427.45 27.9265 4427.26 28.1798 4426.99 28.4497C4426.73 28.7195 4426.37 28.9492 4425.93 29.1386C4425.49 29.328 4424.96 29.4227 4424.32 29.4227ZM4424.58 27.917C4425.24 27.917 4425.8 27.7868 4426.25 27.5264C4426.71 27.266 4427.06 26.9298 4427.29 26.5178C4427.53 26.1059 4427.65 25.6727 4427.65 25.2181V23.684C4427.57 23.7693 4427.42 23.8474 4427.18 23.9184C4426.94 23.9847 4426.67 24.0439 4426.35 24.096C4426.04 24.1433 4425.74 24.1859 4425.45 24.2238C4425.16 24.257 4424.93 24.2854 4424.75 24.309C4424.31 24.3659 4423.9 24.4582 4423.53 24.586C4423.15 24.7091 4422.85 24.8962 4422.62 25.1471C4422.39 25.3933 4422.28 25.7295 4422.28 26.1556C4422.28 26.738 4422.49 27.1784 4422.92 27.4767C4423.36 27.7702 4423.91 27.917 4424.58 27.917ZM4437.13 18.2579V19.6784H4431.47V18.2579H4437.13ZM4433.12 15.6443H4434.8V26.042C4434.8 26.5155 4434.86 26.8706 4435 27.1073C4435.14 27.3393 4435.32 27.4956 4435.54 27.5761C4435.76 27.6518 4436 27.6897 4436.24 27.6897C4436.43 27.6897 4436.58 27.6802 4436.7 27.6613C4436.82 27.6376 4436.91 27.6187 4436.98 27.6045L4437.32 29.1102C4437.21 29.1528 4437.05 29.1954 4436.85 29.238C4436.64 29.2854 4436.39 29.309 4436.07 29.309C4435.6 29.309 4435.14 29.2072 4434.68 29.0036C4434.23 28.8 4433.86 28.4899 4433.56 28.0732C4433.27 27.6566 4433.12 27.131 4433.12 26.4965V15.6443ZM4446.52 24.7068V18.2579H4448.2V29.167H4446.52V27.3204H4446.41C4446.15 27.8744 4445.75 28.3455 4445.21 28.7338C4444.67 29.1173 4443.99 29.309 4443.17 29.309C4442.49 29.309 4441.88 29.1599 4441.35 28.8616C4440.82 28.5586 4440.4 28.104 4440.1 27.498C4439.8 26.8872 4439.65 26.1177 4439.65 25.1897V18.2579H4441.32V25.0761C4441.32 25.8715 4441.55 26.506 4441.99 26.9795C4442.44 27.453 4443.01 27.6897 4443.71 27.6897C4444.13 27.6897 4444.55 27.5832 4444.98 27.3701C4445.42 27.157 4445.78 26.8303 4446.07 26.39C4446.37 25.9497 4446.52 25.3886 4446.52 24.7068ZM4451.27 29.167V18.2579H4452.89V19.9056H4453C4453.2 19.3659 4453.56 18.9279 4454.08 18.5917C4454.6 18.2555 4455.19 18.0874 4455.84 18.0874C4455.96 18.0874 4456.12 18.0898 4456.3 18.0945C4456.49 18.0993 4456.63 18.1064 4456.72 18.1159V19.8204C4456.67 19.8062 4456.54 19.7849 4456.33 19.7565C4456.13 19.7233 4455.92 19.7068 4455.7 19.7068C4455.17 19.7068 4454.7 19.818 4454.28 20.0406C4453.87 20.2584 4453.54 20.5614 4453.3 20.9497C4453.06 21.3332 4452.94 21.7712 4452.94 22.2636V29.167H4451.27ZM4462.95 29.3943C4461.9 29.3943 4460.99 29.1623 4460.23 28.6982C4459.47 28.2295 4458.89 27.5761 4458.48 26.738C4458.07 25.8952 4457.87 24.9151 4457.87 23.7977C4457.87 22.6802 4458.07 21.6954 4458.48 20.8431C4458.89 19.9861 4459.46 19.3185 4460.2 18.8403C4460.93 18.3573 4461.8 18.1159 4462.78 18.1159C4463.35 18.1159 4463.91 18.2106 4464.46 18.3999C4465.02 18.5893 4465.52 18.8971 4465.98 19.3232C4466.43 19.7446 4466.79 20.3034 4467.06 20.9994C4467.33 21.6954 4467.47 22.5524 4467.47 23.5704V24.2806H4459.06V22.8318H4465.76C4465.76 22.2162 4465.64 21.667 4465.39 21.184C4465.15 20.7011 4464.81 20.3199 4464.36 20.0406C4463.91 19.7612 4463.39 19.6215 4462.78 19.6215C4462.11 19.6215 4461.54 19.7873 4461.05 20.1187C4460.56 20.4454 4460.19 20.8715 4459.93 21.3971C4459.67 21.9227 4459.54 22.4861 4459.54 23.0874V24.0534C4459.54 24.8772 4459.68 25.5756 4459.97 26.1485C4460.26 26.7167 4460.66 27.1499 4461.17 27.4482C4461.68 27.7418 4462.27 27.8886 4462.95 27.8886C4463.39 27.8886 4463.79 27.827 4464.14 27.7039C4464.5 27.5761 4464.81 27.3867 4465.07 27.1357C4465.33 26.8801 4465.54 26.5628 4465.68 26.184L4467.3 26.6386C4467.13 27.1878 4466.84 27.6708 4466.44 28.0874C4466.04 28.4994 4465.54 28.8213 4464.95 29.0534C4464.35 29.2806 4463.69 29.3943 4462.95 29.3943ZM4477.74 20.7011L4476.24 21.1272C4476.14 20.8763 4476 20.6324 4475.82 20.3957C4475.64 20.1542 4475.39 19.9553 4475.08 19.7991C4474.77 19.6428 4474.37 19.5647 4473.88 19.5647C4473.21 19.5647 4472.66 19.7186 4472.21 20.0264C4471.77 20.3294 4471.55 20.7153 4471.55 21.184C4471.55 21.6007 4471.7 21.9298 4472.01 22.1713C4472.31 22.4127 4472.78 22.614 4473.43 22.7749L4475.05 23.1727C4476.02 23.4094 4476.75 23.7716 4477.23 24.2593C4477.7 24.7423 4477.94 25.3649 4477.94 26.1272C4477.94 26.7522 4477.76 27.3109 4477.4 27.8034C4477.05 28.2958 4476.55 28.684 4475.91 28.9681C4475.27 29.2522 4474.53 29.3943 4473.68 29.3943C4472.57 29.3943 4471.65 29.1528 4470.92 28.6698C4470.19 28.1869 4469.73 27.4814 4469.53 26.5534L4471.13 26.1556C4471.28 26.7427 4471.56 27.1831 4471.98 27.4767C4472.41 27.7702 4472.97 27.917 4473.65 27.917C4474.44 27.917 4475.06 27.7513 4475.51 27.4198C4475.98 27.0837 4476.21 26.6812 4476.21 26.2124C4476.21 25.8337 4476.08 25.5164 4475.81 25.2607C4475.55 25.0003 4475.14 24.8062 4474.59 24.6784L4472.77 24.2522C4471.77 24.0155 4471.04 23.6485 4470.57 23.1514C4470.11 22.6495 4469.88 22.0221 4469.88 21.2693C4469.88 20.6537 4470.05 20.1092 4470.39 19.6357C4470.74 19.1623 4471.22 18.7906 4471.82 18.5207C4472.43 18.2508 4473.11 18.1159 4473.88 18.1159C4474.96 18.1159 4475.81 18.3526 4476.42 18.8261C4477.04 19.2996 4477.48 19.9246 4477.74 20.7011Z" fill="#555555"/>
<path d="M4509.36 29.167H4507.51L4512.85 14.6215H4514.67L4520.01 29.167H4518.16L4513.82 16.9227H4513.7L4509.36 29.167ZM4510.04 23.4852H4517.48V25.0477H4510.04V23.4852ZM4522.28 29.167V14.6215H4523.95V19.9909H4524.09C4524.22 19.8015 4524.39 19.56 4524.61 19.2664C4524.83 18.9681 4525.15 18.703 4525.56 18.471C4525.97 18.2342 4526.54 18.1159 4527.25 18.1159C4528.17 18.1159 4528.98 18.3455 4529.68 18.8048C4530.38 19.2641 4530.92 19.9151 4531.32 20.7579C4531.71 21.6007 4531.91 22.595 4531.91 23.7409C4531.91 24.8962 4531.71 25.8976 4531.32 26.7451C4530.92 27.5879 4530.38 28.2413 4529.68 28.7053C4528.99 29.1646 4528.19 29.3943 4527.28 29.3943C4526.58 29.3943 4526.01 29.2783 4525.59 29.0463C4525.17 28.8095 4524.85 28.542 4524.62 28.2437C4524.39 27.9407 4524.22 27.6897 4524.09 27.4909H4523.9V29.167H4522.28ZM4523.92 23.7124C4523.92 24.5363 4524.04 25.2631 4524.29 25.8928C4524.53 26.5178 4524.88 27.0079 4525.34 27.363C4525.81 27.7134 4526.38 27.8886 4527.05 27.8886C4527.75 27.8886 4528.33 27.7039 4528.8 27.3346C4529.28 26.9606 4529.63 26.4587 4529.87 25.8289C4530.11 25.1945 4530.23 24.489 4530.23 23.7124C4530.23 22.9454 4530.11 22.2541 4529.88 21.6386C4529.64 21.0183 4529.29 20.5283 4528.82 20.1684C4528.35 19.8038 4527.76 19.6215 4527.05 19.6215C4526.37 19.6215 4525.79 19.7944 4525.33 20.14C4524.87 20.4809 4524.52 20.9591 4524.28 21.5747C4524.04 22.1855 4523.92 22.8981 4523.92 23.7124ZM4538.9 29.3943C4537.92 29.3943 4537.05 29.1599 4536.31 28.6911C4535.57 28.2224 4534.99 27.5666 4534.58 26.7238C4534.17 25.881 4533.96 24.8962 4533.96 23.7693C4533.96 22.6329 4534.17 21.641 4534.58 20.7934C4534.99 19.9459 4535.57 19.2877 4536.31 18.819C4537.05 18.3502 4537.92 18.1159 4538.9 18.1159C4539.89 18.1159 4540.75 18.3502 4541.49 18.819C4542.23 19.2877 4542.81 19.9459 4543.22 20.7934C4543.64 21.641 4543.85 22.6329 4543.85 23.7693C4543.85 24.8962 4543.64 25.881 4543.22 26.7238C4542.81 27.5666 4542.23 28.2224 4541.49 28.6911C4540.75 29.1599 4539.89 29.3943 4538.9 29.3943ZM4538.9 27.8886C4539.65 27.8886 4540.27 27.6968 4540.75 27.3133C4541.23 26.9298 4541.59 26.4255 4541.82 25.8005C4542.05 25.1755 4542.17 24.4984 4542.17 23.7693C4542.17 23.0401 4542.05 22.3606 4541.82 21.7309C4541.59 21.1012 4541.23 20.5922 4540.75 20.2039C4540.27 19.8157 4539.65 19.6215 4538.9 19.6215C4538.15 19.6215 4537.54 19.8157 4537.06 20.2039C4536.57 20.5922 4536.22 21.1012 4535.98 21.7309C4535.75 22.3606 4535.64 23.0401 4535.64 23.7693C4535.64 24.4984 4535.75 25.1755 4535.98 25.8005C4536.22 26.4255 4536.57 26.9298 4537.06 27.3133C4537.54 27.6968 4538.15 27.8886 4538.9 27.8886ZM4553.28 24.7068V18.2579H4554.96V29.167H4553.28V27.3204H4553.17C4552.91 27.8744 4552.51 28.3455 4551.97 28.7338C4551.43 29.1173 4550.75 29.309 4549.93 29.309C4549.25 29.309 4548.64 29.1599 4548.11 28.8616C4547.58 28.5586 4547.16 28.104 4546.86 27.498C4546.56 26.8872 4546.4 26.1177 4546.4 25.1897V18.2579H4548.08V25.0761C4548.08 25.8715 4548.3 26.506 4548.75 26.9795C4549.2 27.453 4549.77 27.6897 4550.47 27.6897C4550.88 27.6897 4551.31 27.5832 4551.74 27.3701C4552.17 27.157 4552.54 26.8303 4552.83 26.39C4553.13 25.9497 4553.28 25.3886 4553.28 24.7068ZM4562.77 18.2579V19.6784H4557.12V18.2579H4562.77ZM4558.76 15.6443H4560.44V26.042C4560.44 26.5155 4560.51 26.8706 4560.65 27.1073C4560.79 27.3393 4560.97 27.4956 4561.19 27.5761C4561.41 27.6518 4561.64 27.6897 4561.89 27.6897C4562.07 27.6897 4562.23 27.6802 4562.34 27.6613C4562.46 27.6376 4562.56 27.6187 4562.63 27.6045L4562.97 29.1102C4562.85 29.1528 4562.7 29.1954 4562.49 29.238C4562.29 29.2854 4562.03 29.309 4561.72 29.309C4561.24 29.309 4560.78 29.2072 4560.33 29.0036C4559.88 28.8 4559.5 28.4899 4559.2 28.0732C4558.91 27.6566 4558.76 27.131 4558.76 26.4965V15.6443Z" fill="#555555"/>
<path d="M4593.76 29.167V14.6215H4595.52V27.6045H4602.28V29.167H4593.76ZM4607.99 29.4227C4607.3 29.4227 4606.67 29.2925 4606.11 29.032C4605.55 28.7669 4605.1 28.3857 4604.77 27.8886C4604.44 27.3867 4604.27 26.7806 4604.27 26.0704C4604.27 25.4454 4604.39 24.9388 4604.64 24.5505C4604.89 24.1575 4605.22 23.8498 4605.63 23.6272C4606.04 23.4047 4606.49 23.239 4606.99 23.1301C4607.49 23.0164 4608 22.9265 4608.5 22.8602C4609.17 22.7749 4609.7 22.711 4610.12 22.6684C4610.53 22.6211 4610.84 22.5429 4611.03 22.434C4611.22 22.3251 4611.32 22.1357 4611.32 21.8659V21.809C4611.32 21.1083 4611.13 20.5638 4610.74 20.1755C4610.36 19.7873 4609.79 19.5931 4609.02 19.5931C4608.22 19.5931 4607.59 19.7683 4607.13 20.1187C4606.68 20.4691 4606.36 20.8431 4606.18 21.2409L4604.58 20.6727C4604.87 20.0098 4605.25 19.4937 4605.72 19.1244C4606.2 18.7503 4606.72 18.4899 4607.28 18.3431C4607.85 18.1916 4608.41 18.1159 4608.96 18.1159C4609.31 18.1159 4609.71 18.1585 4610.17 18.2437C4610.63 18.3242 4611.07 18.4923 4611.49 18.748C4611.93 19.0036 4612.28 19.3895 4612.57 19.9056C4612.85 20.4217 4612.99 21.113 4612.99 21.9795V29.167H4611.32V27.6897H4611.23C4611.12 27.9265 4610.93 28.1798 4610.66 28.4497C4610.4 28.7195 4610.05 28.9492 4609.61 29.1386C4609.17 29.328 4608.63 29.4227 4607.99 29.4227ZM4608.25 27.917C4608.91 27.917 4609.47 27.7868 4609.93 27.5264C4610.38 27.266 4610.73 26.9298 4610.96 26.5178C4611.2 26.1059 4611.32 25.6727 4611.32 25.2181V23.684C4611.25 23.7693 4611.09 23.8474 4610.85 23.9184C4610.61 23.9847 4610.34 24.0439 4610.02 24.096C4609.72 24.1433 4609.42 24.1859 4609.12 24.2238C4608.83 24.257 4608.6 24.2854 4608.42 24.309C4607.98 24.3659 4607.58 24.4582 4607.2 24.586C4606.82 24.7091 4606.52 24.8962 4606.29 25.1471C4606.06 25.3933 4605.95 25.7295 4605.95 26.1556C4605.95 26.738 4606.16 27.1784 4606.59 27.4767C4607.03 27.7702 4607.58 27.917 4608.25 27.917ZM4622.93 24.7068V18.2579H4624.6V29.167H4622.93V27.3204H4622.81C4622.56 27.8744 4622.16 28.3455 4621.62 28.7338C4621.08 29.1173 4620.4 29.309 4619.58 29.309C4618.89 29.309 4618.29 29.1599 4617.76 28.8616C4617.23 28.5586 4616.81 28.104 4616.51 27.498C4616.2 26.8872 4616.05 26.1177 4616.05 25.1897V18.2579H4617.73V25.0761C4617.73 25.8715 4617.95 26.506 4618.4 26.9795C4618.85 27.453 4619.42 27.6897 4620.12 27.6897C4620.53 27.6897 4620.96 27.5832 4621.39 27.3701C4621.82 27.157 4622.19 26.8303 4622.48 26.39C4622.78 25.9497 4622.93 25.3886 4622.93 24.7068ZM4629.35 22.6045V29.167H4627.67V18.2579H4629.29V19.9624H4629.44C4629.69 19.4085 4630.08 18.9634 4630.6 18.6272C4631.12 18.2863 4631.79 18.1159 4632.62 18.1159C4633.36 18.1159 4634 18.2674 4634.56 18.5704C4635.11 18.8687 4635.54 19.3232 4635.85 19.934C4636.16 20.5401 4636.31 21.3071 4636.31 22.2352V29.167H4634.63V22.3488C4634.63 21.4918 4634.41 20.8242 4633.97 20.346C4633.52 19.863 4632.91 19.6215 4632.13 19.6215C4631.6 19.6215 4631.12 19.7375 4630.7 19.9695C4630.28 20.2016 4629.95 20.5401 4629.71 20.9852C4629.47 21.4302 4629.35 21.97 4629.35 22.6045ZM4643.8 29.3943C4642.78 29.3943 4641.9 29.1528 4641.16 28.6698C4640.42 28.1869 4639.86 27.5216 4639.46 26.6741C4639.06 25.8266 4638.86 24.8583 4638.86 23.7693C4638.86 22.6613 4639.07 21.6836 4639.47 20.836C4639.88 19.9838 4640.46 19.3185 4641.19 18.8403C4641.93 18.3573 4642.79 18.1159 4643.78 18.1159C4644.54 18.1159 4645.23 18.2579 4645.85 18.542C4646.47 18.8261 4646.97 19.2238 4647.36 19.7352C4647.76 20.2465 4648 20.8431 4648.09 21.5249H4646.42C4646.29 21.0278 4646.01 20.5874 4645.57 20.2039C4645.13 19.8157 4644.54 19.6215 4643.8 19.6215C4643.15 19.6215 4642.58 19.792 4642.09 20.1329C4641.6 20.4691 4641.22 20.9449 4640.94 21.5605C4640.67 22.1713 4640.54 22.8886 4640.54 23.7124C4640.54 24.5552 4640.67 25.2892 4640.94 25.9142C4641.21 26.5392 4641.58 27.0245 4642.07 27.3701C4642.56 27.7158 4643.14 27.8886 4643.8 27.8886C4644.24 27.8886 4644.64 27.8128 4644.99 27.6613C4645.35 27.5098 4645.65 27.292 4645.89 27.0079C4646.14 26.7238 4646.31 26.3829 4646.42 25.9852H4648.09C4648 26.6291 4647.77 27.2091 4647.39 27.7252C4647.02 28.2366 4646.53 28.6438 4645.92 28.9468C4645.32 29.2451 4644.61 29.3943 4643.8 29.3943ZM4652.22 22.6045V29.167H4650.54V14.6215H4652.22V19.9624H4652.36C4652.62 19.399 4653 18.9516 4653.51 18.6201C4654.03 18.2839 4654.72 18.1159 4655.57 18.1159C4656.32 18.1159 4656.97 18.265 4657.53 18.5633C4658.09 18.8569 4658.52 19.309 4658.83 19.9198C4659.14 20.5259 4659.29 21.2977 4659.29 22.2352V29.167H4657.62V22.3488C4657.62 21.4823 4657.39 20.8124 4656.94 20.3389C4656.5 19.8606 4655.88 19.6215 4655.09 19.6215C4654.54 19.6215 4654.05 19.7375 4653.61 19.9695C4653.18 20.2016 4652.84 20.5401 4652.59 20.9852C4652.34 21.4302 4652.22 21.97 4652.22 22.6045Z" fill="#555555"/>
<path d="M4698.71 18.2579C4698.63 17.5382 4698.28 16.9795 4697.68 16.5818C4697.07 16.184 4696.33 15.9852 4695.45 15.9852C4694.8 15.9852 4694.24 16.0893 4693.76 16.2977C4693.28 16.506 4692.91 16.7925 4692.64 17.157C4692.37 17.5216 4692.24 17.9359 4692.24 18.3999C4692.24 18.7882 4692.33 19.122 4692.51 19.4014C4692.7 19.676 4692.95 19.9056 4693.24 20.0903C4693.53 20.2702 4693.84 20.4194 4694.16 20.5377C4694.48 20.6514 4694.78 20.7437 4695.05 20.8147L4696.53 21.2124C4696.91 21.3119 4697.33 21.4492 4697.79 21.6244C4698.26 21.7996 4698.71 22.0387 4699.13 22.3417C4699.56 22.64 4699.92 23.0235 4700.2 23.4923C4700.48 23.961 4700.62 24.5363 4700.62 25.2181C4700.62 26.0041 4700.41 26.7143 4700 27.3488C4699.59 27.9833 4699 28.4875 4698.21 28.8616C4697.43 29.2356 4696.48 29.4227 4695.36 29.4227C4694.32 29.4227 4693.42 29.2546 4692.66 28.9184C4691.9 28.5822 4691.3 28.1135 4690.87 27.5122C4690.44 26.9108 4690.19 26.2124 4690.14 25.417H4691.95C4692 25.9662 4692.19 26.4208 4692.51 26.7806C4692.83 27.1357 4693.25 27.4009 4693.74 27.5761C4694.25 27.7465 4694.79 27.8318 4695.36 27.8318C4696.04 27.8318 4696.64 27.7229 4697.17 27.5051C4697.71 27.2825 4698.13 26.9748 4698.45 26.5818C4698.76 26.184 4698.91 25.72 4698.91 25.1897C4698.91 24.7068 4698.78 24.3138 4698.51 24.0107C4698.24 23.7077 4697.88 23.4615 4697.44 23.2721C4697 23.0827 4696.53 22.917 4696.02 22.7749L4694.23 22.2636C4693.09 21.9369 4692.19 21.4705 4691.53 20.8644C4690.86 20.2584 4690.53 19.4653 4690.53 18.4852C4690.53 17.6708 4690.75 16.9606 4691.19 16.3545C4691.64 15.7437 4692.24 15.2702 4692.98 14.934C4693.74 14.5931 4694.58 14.4227 4695.5 14.4227C4696.44 14.4227 4697.28 14.5908 4698 14.9269C4698.73 15.2584 4699.31 15.7129 4699.74 16.2906C4700.17 16.8682 4700.4 17.524 4700.42 18.2579H4698.71ZM4703.29 29.167V18.2579H4704.96V29.167H4703.29ZM4704.14 16.4397C4703.81 16.4397 4703.53 16.3285 4703.29 16.1059C4703.06 15.8834 4702.95 15.6159 4702.95 15.3034C4702.95 14.9909 4703.06 14.7233 4703.29 14.5008C4703.53 14.2783 4703.81 14.167 4704.14 14.167C4704.47 14.167 4704.75 14.2783 4704.98 14.5008C4705.21 14.7233 4705.33 14.9909 4705.33 15.3034C4705.33 15.6159 4705.21 15.8834 4704.98 16.1059C4704.75 16.3285 4704.47 16.4397 4704.14 16.4397ZM4712.44 33.4852C4711.63 33.4852 4710.93 33.381 4710.35 33.1727C4709.77 32.9691 4709.28 32.6992 4708.89 32.363C4708.51 32.0316 4708.2 31.6765 4707.98 31.2977L4709.31 30.3602C4709.46 30.559 4709.65 30.7863 4709.89 31.042C4710.12 31.3024 4710.44 31.5273 4710.84 31.7167C4711.25 31.9108 4711.78 32.0079 4712.44 32.0079C4713.32 32.0079 4714.04 31.7948 4714.62 31.3687C4715.19 30.9426 4715.48 30.2749 4715.48 29.3659V27.1499H4715.33C4715.21 27.3488 4715.04 27.595 4714.81 27.8886C4714.59 28.1774 4714.26 28.4355 4713.84 28.6627C4713.43 28.8853 4712.86 28.9965 4712.15 28.9965C4711.27 28.9965 4710.48 28.7882 4709.78 28.3715C4709.08 27.9549 4708.53 27.3488 4708.13 26.5534C4707.72 25.7579 4707.52 24.792 4707.52 23.6556C4707.52 22.5382 4707.72 21.5652 4708.11 20.7366C4708.5 19.9033 4709.05 19.2593 4709.75 18.8048C4710.45 18.3455 4711.26 18.1159 4712.18 18.1159C4712.89 18.1159 4713.45 18.2342 4713.87 18.471C4714.29 18.703 4714.61 18.9681 4714.84 19.2664C4715.06 19.56 4715.24 19.8015 4715.36 19.9909H4715.53V18.2579H4717.15V29.4795C4717.15 30.417 4716.94 31.1793 4716.51 31.7664C4716.09 32.3583 4715.52 32.7915 4714.81 33.0661C4714.1 33.3455 4713.31 33.4852 4712.44 33.4852ZM4712.38 27.4909C4713.05 27.4909 4713.62 27.337 4714.08 27.0292C4714.55 26.7214 4714.9 26.2787 4715.14 25.7011C4715.38 25.1234 4715.5 24.4321 4715.5 23.6272C4715.5 22.8412 4715.39 22.1476 4715.15 21.5463C4714.91 20.9449 4714.56 20.4738 4714.1 20.1329C4713.63 19.792 4713.06 19.6215 4712.38 19.6215C4711.67 19.6215 4711.08 19.8015 4710.6 20.1613C4710.14 20.5212 4709.78 21.0041 4709.55 21.6102C4709.31 22.2162 4709.2 22.8886 4709.2 23.6272C4709.2 24.3848 4709.32 25.0548 4709.55 25.6372C4709.79 26.2148 4710.15 26.6694 4710.62 27.0008C4711.09 27.3275 4711.68 27.4909 4712.38 27.4909ZM4721.9 22.6045V29.167H4720.22V18.2579H4721.84V19.9624H4721.98C4722.24 19.4085 4722.63 18.9634 4723.15 18.6272C4723.67 18.2863 4724.34 18.1159 4725.16 18.1159C4725.9 18.1159 4726.55 18.2674 4727.1 18.5704C4727.66 18.8687 4728.09 19.3232 4728.4 19.934C4728.7 20.5401 4728.86 21.3071 4728.86 22.2352V29.167H4727.18V22.3488C4727.18 21.4918 4726.96 20.8242 4726.51 20.346C4726.07 19.863 4725.46 19.6215 4724.68 19.6215C4724.15 19.6215 4723.67 19.7375 4723.25 19.9695C4722.83 20.2016 4722.5 20.5401 4722.26 20.9852C4722.02 21.4302 4721.9 21.97 4721.9 22.6045ZM4747.32 14.6215H4749.08V24.2522C4749.08 25.2465 4748.84 26.1343 4748.38 26.9156C4747.91 27.6921 4747.26 28.3052 4746.41 28.7551C4745.56 29.2001 4744.57 29.4227 4743.43 29.4227C4742.28 29.4227 4741.29 29.2001 4740.44 28.7551C4739.6 28.3052 4738.94 27.6921 4738.47 26.9156C4738 26.1343 4737.77 25.2465 4737.77 24.2522V14.6215H4739.53V24.1102C4739.53 24.8204 4739.69 25.4525 4740 26.0065C4740.31 26.5557 4740.76 26.989 4741.34 27.3062C4741.92 27.6187 4742.62 27.7749 4743.43 27.7749C4744.24 27.7749 4744.93 27.6187 4745.51 27.3062C4746.1 26.989 4746.54 26.5557 4746.85 26.0065C4747.16 25.4525 4747.32 24.8204 4747.32 24.1102V14.6215ZM4752.37 33.2579V18.2579H4753.99V19.9909H4754.19C4754.31 19.8015 4754.48 19.56 4754.7 19.2664C4754.92 18.9681 4755.24 18.703 4755.65 18.471C4756.07 18.2342 4756.63 18.1159 4757.34 18.1159C4758.26 18.1159 4759.07 18.3455 4759.77 18.8048C4760.47 19.2641 4761.02 19.9151 4761.41 20.7579C4761.8 21.6007 4762 22.595 4762 23.7409C4762 24.8962 4761.8 25.8976 4761.41 26.7451C4761.02 27.5879 4760.47 28.2413 4759.78 28.7053C4759.08 29.1646 4758.28 29.3943 4757.37 29.3943C4756.67 29.3943 4756.11 29.2783 4755.69 29.0463C4755.26 28.8095 4754.94 28.542 4754.71 28.2437C4754.49 27.9407 4754.31 27.6897 4754.19 27.4909H4754.05V33.2579H4752.37ZM4754.02 23.7124C4754.02 24.5363 4754.14 25.2631 4754.38 25.8928C4754.62 26.5178 4754.97 27.0079 4755.44 27.363C4755.9 27.7134 4756.47 27.8886 4757.14 27.8886C4757.84 27.8886 4758.43 27.7039 4758.9 27.3346C4759.37 26.9606 4759.72 26.4587 4759.96 25.8289C4760.2 25.1945 4760.32 24.489 4760.32 23.7124C4760.32 22.9454 4760.21 22.2541 4759.97 21.6386C4759.74 21.0183 4759.38 20.5283 4758.91 20.1684C4758.44 19.8038 4757.85 19.6215 4757.14 19.6215C4756.46 19.6215 4755.89 19.7944 4755.42 20.14C4754.96 20.4809 4754.61 20.9591 4754.37 21.5747C4754.14 22.1855 4754.02 22.8981 4754.02 23.7124Z" fill="#FF3998"/>
</svg>
