<svg width="252" height="18" viewBox="0 0 252 18" fill="none" xmlns="http://www.w3.org/2000/svg">
<path d="M39.066 9.05477C39.066 4.05274 30.4725 0 19.866 0C9.25956 0 0.666016 4.05274 0.666016 9.05477C0.666016 13.5741 7.68718 17.3202 16.866 18V11.6723H11.9886V9.05477H16.866V7.0598C16.866 4.79063 19.7305 3.5372 24.1179 3.5372C26.219 3.5372 28.4162 3.71391 28.4162 3.71391V5.9411H25.9945C23.61 5.9411 22.866 6.63919 22.866 7.35517V9.05477H28.1909L27.3393 11.6723H22.866V18C32.0448 17.3202 39.066 13.5741 39.066 9.05477Z" fill="#999999"/>
<path d="M85.2752 15.9109C99.7659 15.9109 107.692 10.2835 107.692 5.40337C107.692 5.24353 107.692 5.08441 107.669 4.92602C109.21 4.40324 110.541 3.75594 111.599 3.01444C110.161 3.31309 108.636 3.50895 107.074 3.59547C108.719 3.13394 109.95 2.40804 110.538 1.55285C108.991 1.98301 107.299 2.28617 105.535 2.44924C104.347 1.85718 102.776 1.46513 101.065 1.33377C99.354 1.2024 97.5983 1.33904 96.0696 1.72254C94.5408 2.10604 93.3244 2.71502 92.6084 3.45524C91.8924 4.19547 91.7169 5.02566 92.1089 5.81737C88.9766 5.74376 85.9124 5.36221 83.1151 4.69748C80.3178 4.03276 77.85 3.09971 75.8719 1.95893C74.8644 2.77191 74.5558 3.73433 75.009 4.65021C75.4621 5.5661 76.643 6.3666 78.311 6.88871C77.0573 6.8713 75.8308 6.71276 74.7352 6.42648C74.7352 6.4416 74.7352 6.45744 74.7352 6.47328C74.7357 7.32591 75.3654 8.15221 76.5174 8.81203C77.6694 9.47185 79.2729 9.92457 81.0559 10.0934C79.896 10.2417 78.679 10.2634 77.4985 10.1568C78.0019 10.8906 78.982 11.5322 80.3018 11.9921C81.6215 12.4519 83.2149 12.7069 84.859 12.7214C82.0692 13.7491 78.6229 14.307 75.0747 14.3054C74.4478 14.3048 73.8216 14.287 73.1992 14.2521C76.8021 15.3359 80.9943 15.9107 85.2752 15.9081" fill="#999999"/>
<path d="M164.932 1.62165C170.059 1.62165 170.666 1.6308 172.691 1.6741C174.563 1.71415 175.579 1.86077 176.256 1.98398C177.152 2.14725 177.792 2.34231 178.464 2.65723C179.135 2.97215 179.552 3.272 179.9 3.69206C180.163 4.00923 180.476 4.48577 180.561 5.36323C180.653 6.31228 180.673 6.5969 180.673 9.00002C180.673 11.4031 180.653 11.6878 180.561 12.6368C180.476 13.5143 180.163 13.9908 179.9 14.308C179.552 14.728 179.135 15.0279 178.464 15.3428C177.792 15.6577 177.152 15.8528 176.256 16.016C175.579 16.1393 174.563 16.2859 172.691 16.3259C170.667 16.3692 170.059 16.3784 164.932 16.3784C159.805 16.3784 159.198 16.3692 157.174 16.3259C155.302 16.2859 154.285 16.1393 153.609 16.016C152.713 15.8528 152.073 15.6577 151.401 15.3428C150.729 15.0279 150.313 14.728 149.965 14.308C149.702 13.9908 149.389 13.5143 149.304 12.6368C149.211 11.6878 149.192 11.4031 149.192 9.00002C149.192 6.5969 149.211 6.31228 149.304 5.36326C149.389 4.48577 149.702 4.00923 149.965 3.69206C150.313 3.272 150.729 2.97215 151.401 2.65723C152.073 2.34231 152.713 2.14725 153.609 1.98398C154.285 1.86077 155.302 1.71415 157.174 1.6741C159.199 1.6308 159.806 1.62165 164.932 1.62165ZM164.932 0C159.718 0 159.064 0.0103604 157.016 0.0541599C154.973 0.097888 153.577 0.250007 152.356 0.472506C151.093 0.702507 150.022 1.01025 148.955 1.51058C147.888 2.01092 147.231 2.51283 146.74 3.10466C146.266 3.67716 145.941 4.33137 145.848 5.28935C145.754 6.24926 145.732 6.55575 145.732 9.00002C145.732 11.4443 145.754 11.7508 145.848 12.7107C145.941 13.6687 146.266 14.3229 146.74 14.8954C147.231 15.4872 147.888 15.9891 148.955 16.4895C150.022 16.9898 151.093 17.2975 152.356 17.5275C153.577 17.75 154.973 17.9021 157.016 17.9459C159.064 17.9897 159.718 18 164.932 18C170.147 18 170.801 17.9897 172.848 17.9459C174.892 17.9021 176.288 17.75 177.509 17.5275C178.772 17.2975 179.842 16.9898 180.91 16.4895C181.977 15.9891 182.634 15.4872 183.124 14.8954C183.599 14.3229 183.924 13.6687 184.017 12.7107C184.11 11.7508 184.132 11.4443 184.132 9.00002C184.132 6.55575 184.11 6.24926 184.017 5.28935C183.924 4.33137 183.599 3.67716 183.124 3.10466C182.634 2.51283 181.977 2.01092 180.91 1.51058C179.842 1.01025 178.772 0.702507 177.509 0.472506C176.288 0.250007 174.892 0.097888 172.848 0.0541599C170.801 0.0103604 170.147 0 164.932 0ZM164.932 4.37838C159.487 4.37838 155.073 6.44757 155.073 9.00002C155.073 11.5525 159.487 13.6217 164.932 13.6217C170.378 13.6217 174.792 11.5525 174.792 9.00002C174.792 6.44757 170.378 4.37838 164.932 4.37838ZM164.932 12C161.398 12 158.532 10.6569 158.532 9.00002C158.532 7.34317 161.398 6 164.932 6C168.467 6 171.332 7.34317 171.332 9.00002C171.332 10.6569 168.467 12 164.932 12ZM177.485 4.19579C177.485 4.79226 176.454 5.27581 175.181 5.27581C173.909 5.27581 172.877 4.79226 172.877 4.19579C172.877 3.59931 173.909 3.1158 175.181 3.1158C176.454 3.1158 177.485 3.59931 177.485 4.19579Z" fill="#999999"/>
<path d="M235.79 0.0151883C237.885 0 239.967 0.00900048 242.046 0C242.172 1.14812 243.053 2.31762 244.846 3.12935C246.635 3.96134 249.166 4.34217 251.629 4.47099V7.49121C249.321 7.45577 247.003 7.23076 244.909 6.76499C243.997 6.57148 243.147 6.32227 242.315 6.06745C242.304 8.25907 242.334 10.4479 242.285 12.6305C242.16 13.679 241.422 14.7225 240.122 15.5866C238.029 17.025 234.396 17.9627 230.665 17.992C228.376 18.0533 226.09 17.7608 224.14 17.2219C220.908 16.3286 218.634 14.6933 218.303 12.9382C218.265 12.563 218.252 12.1883 218.284 11.8221C218.572 10.395 220.078 9.02973 222.416 8.10099C225.065 7.01925 228.777 6.50397 232.253 6.80886C232.285 7.91986 232.19 9.02973 232.19 10.1407C230.603 9.89997 228.747 9.96747 227.36 10.4192C226.347 10.7269 225.578 11.1983 225.177 11.7316C224.846 12.1118 224.941 12.5343 224.96 12.9382C225.34 14.169 227.865 15.2035 230.561 15.0916C232.347 15.0826 234.06 14.5965 234.991 13.8849C235.292 13.6357 235.63 13.3809 235.648 13.0878C235.805 11.7462 235.742 10.4102 235.762 9.06855C235.775 6.04495 235.742 3.02979 235.792 0.0157508L235.79 0.0151883Z" fill="#999999"/>
</svg>
